%TF.GenerationSoftware,KiCad,Pcbnew,7.0.2*%
%TF.CreationDate,2023-08-08T23:25:05-03:00*%
%TF.ProjectId,USB Switch,55534220-5377-4697-9463-682e6b696361,rev?*%
%TF.SameCoordinates,Original*%
%TF.FileFunction,Soldermask,Bot*%
%TF.FilePolarity,Negative*%
%FSLAX46Y46*%
G04 Gerber Fmt 4.6, Leading zero omitted, Abs format (unit mm)*
G04 Created by KiCad (PCBNEW 7.0.2) date 2023-08-08 23:25:05*
%MOMM*%
%LPD*%
G01*
G04 APERTURE LIST*
G04 Aperture macros list*
%AMRoundRect*
0 Rectangle with rounded corners*
0 $1 Rounding radius*
0 $2 $3 $4 $5 $6 $7 $8 $9 X,Y pos of 4 corners*
0 Add a 4 corners polygon primitive as box body*
4,1,4,$2,$3,$4,$5,$6,$7,$8,$9,$2,$3,0*
0 Add four circle primitives for the rounded corners*
1,1,$1+$1,$2,$3*
1,1,$1+$1,$4,$5*
1,1,$1+$1,$6,$7*
1,1,$1+$1,$8,$9*
0 Add four rect primitives between the rounded corners*
20,1,$1+$1,$2,$3,$4,$5,0*
20,1,$1+$1,$4,$5,$6,$7,0*
20,1,$1+$1,$6,$7,$8,$9,0*
20,1,$1+$1,$8,$9,$2,$3,0*%
G04 Aperture macros list end*
%ADD10R,1.200000X1.200000*%
%ADD11C,1.200000*%
%ADD12C,2.700000*%
%ADD13C,2.280000*%
%ADD14C,0.800000*%
%ADD15C,6.400000*%
%ADD16RoundRect,0.250001X-0.899999X0.899999X-0.899999X-0.899999X0.899999X-0.899999X0.899999X0.899999X0*%
%ADD17C,2.300000*%
G04 APERTURE END LIST*
D10*
%TO.C,USB1*%
X66381087Y-82095000D03*
D11*
X63881087Y-82095000D03*
X61881087Y-82095000D03*
X59381087Y-82095000D03*
X58881087Y-83595000D03*
X60881087Y-83595000D03*
X62881087Y-83595000D03*
X64881087Y-83595000D03*
X66881087Y-83595000D03*
D12*
X69281087Y-82845000D03*
X56481087Y-82845000D03*
D13*
X69281087Y-74345000D03*
X56481087Y-74345000D03*
%TD*%
D10*
%TO.C,USB4*%
X136281087Y-82095000D03*
D11*
X133781087Y-82095000D03*
X131781087Y-82095000D03*
X129281087Y-82095000D03*
X128781087Y-83595000D03*
X130781087Y-83595000D03*
X132781087Y-83595000D03*
X134781087Y-83595000D03*
X136781087Y-83595000D03*
D12*
X139181087Y-82845000D03*
X126381087Y-82845000D03*
D13*
X139181087Y-74345000D03*
X126381087Y-74345000D03*
%TD*%
D10*
%TO.C,USB3*%
X114056087Y-82095000D03*
D11*
X111556087Y-82095000D03*
X109556087Y-82095000D03*
X107056087Y-82095000D03*
X106556087Y-83595000D03*
X108556087Y-83595000D03*
X110556087Y-83595000D03*
X112556087Y-83595000D03*
X114556087Y-83595000D03*
D12*
X116956087Y-82845000D03*
X104156087Y-82845000D03*
D13*
X116956087Y-74345000D03*
X104156087Y-74345000D03*
%TD*%
D14*
%TO.C,REF\u002A\u002A*%
X51367056Y-91300000D03*
X52070000Y-89602944D03*
X52070000Y-92997056D03*
X53767056Y-88900000D03*
D15*
X53767056Y-91300000D03*
D14*
X53767056Y-93700000D03*
X55464112Y-89602944D03*
X55464112Y-92997056D03*
X56167056Y-91300000D03*
%TD*%
D16*
%TO.C,J1*%
X137492500Y-104140000D03*
D17*
X137492500Y-108940000D03*
X137492500Y-113740000D03*
X137492500Y-118540000D03*
X137492500Y-123340000D03*
%TD*%
D14*
%TO.C,REF\u002A\u002A*%
X139840000Y-91300000D03*
X140542944Y-89602944D03*
X140542944Y-92997056D03*
X142240000Y-88900000D03*
D15*
X142240000Y-91300000D03*
D14*
X142240000Y-93700000D03*
X143937056Y-89602944D03*
X143937056Y-92997056D03*
X144640000Y-91300000D03*
%TD*%
%TO.C,REF\u002A\u002A*%
X50512944Y-129967056D03*
X51215888Y-128270000D03*
X51215888Y-131664112D03*
X52912944Y-127567056D03*
D15*
X52912944Y-129967056D03*
D14*
X52912944Y-132367056D03*
X54610000Y-128270000D03*
X54610000Y-131664112D03*
X55312944Y-129967056D03*
%TD*%
%TO.C,REF\u002A\u002A*%
X140682944Y-129540000D03*
X141385888Y-127842944D03*
X141385888Y-131237056D03*
X143082944Y-127140000D03*
D15*
X143082944Y-129540000D03*
D14*
X143082944Y-131940000D03*
X144780000Y-127842944D03*
X144780000Y-131237056D03*
X145482944Y-129540000D03*
%TD*%
D10*
%TO.C,USB2*%
X91831087Y-82095000D03*
D11*
X89331087Y-82095000D03*
X87331087Y-82095000D03*
X84831087Y-82095000D03*
X84331087Y-83595000D03*
X86331087Y-83595000D03*
X88331087Y-83595000D03*
X90331087Y-83595000D03*
X92331087Y-83595000D03*
D12*
X94731087Y-82845000D03*
X81931087Y-82845000D03*
D13*
X94731087Y-74345000D03*
X81931087Y-74345000D03*
%TD*%
M02*
