%TF.GenerationSoftware,KiCad,Pcbnew,7.0.2*%
%TF.CreationDate,2023-08-06T23:13:36-03:00*%
%TF.ProjectId,KVM Project,4b564d20-5072-46f6-9a65-63742e6b6963,rev?*%
%TF.SameCoordinates,Original*%
%TF.FileFunction,Copper,L4,Bot*%
%TF.FilePolarity,Positive*%
%FSLAX46Y46*%
G04 Gerber Fmt 4.6, Leading zero omitted, Abs format (unit mm)*
G04 Created by KiCad (PCBNEW 7.0.2) date 2023-08-06 23:13:36*
%MOMM*%
%LPD*%
G01*
G04 APERTURE LIST*
%TA.AperFunction,ComponentPad*%
%ADD10R,1.700000X1.700000*%
%TD*%
%TA.AperFunction,ComponentPad*%
%ADD11O,1.700000X1.700000*%
%TD*%
%TA.AperFunction,ComponentPad*%
%ADD12R,4.400000X1.800000*%
%TD*%
%TA.AperFunction,ComponentPad*%
%ADD13O,4.000000X1.800000*%
%TD*%
%TA.AperFunction,ComponentPad*%
%ADD14O,1.800000X4.000000*%
%TD*%
%TA.AperFunction,ComponentPad*%
%ADD15C,2.660000*%
%TD*%
%TA.AperFunction,ComponentPad*%
%ADD16C,1.982000*%
%TD*%
%TA.AperFunction,ComponentPad*%
%ADD17R,1.524000X1.524000*%
%TD*%
%TA.AperFunction,ComponentPad*%
%ADD18C,1.524000*%
%TD*%
%TA.AperFunction,ComponentPad*%
%ADD19C,3.500000*%
%TD*%
%TA.AperFunction,ViaPad*%
%ADD20C,0.400000*%
%TD*%
%TA.AperFunction,Conductor*%
%ADD21C,0.200000*%
%TD*%
%TA.AperFunction,Conductor*%
%ADD22C,0.250000*%
%TD*%
G04 APERTURE END LIST*
D10*
%TO.P,PWR1,1,Pin_1*%
%TO.N,Net-(D13-A)*%
X172720000Y-86360000D03*
D11*
%TO.P,PWR1,2,Pin_2*%
%TO.N,GND*%
X172720000Y-88900000D03*
%TD*%
D12*
%TO.P,PWR2,1*%
%TO.N,Net-(D11-A)*%
X173320000Y-62230000D03*
D13*
%TO.P,PWR2,2*%
%TO.N,GND*%
X173320000Y-56430000D03*
D14*
%TO.P,PWR2,3*%
X168520000Y-59230000D03*
%TD*%
D15*
%TO.P,DP_IN1,MH1,MH1*%
%TO.N,unconnected-(DP_IN1-PadMH1)*%
X99690000Y-60900000D03*
D16*
%TO.P,DP_IN1,MH2,MH2*%
%TO.N,unconnected-(DP_IN1-PadMH2)*%
X99690000Y-54120000D03*
%TO.P,DP_IN1,MH3,MH3*%
%TO.N,unconnected-(DP_IN1-PadMH3)*%
X83190000Y-54120000D03*
D15*
%TO.P,DP_IN1,MH4,MH4*%
%TO.N,unconnected-(DP_IN1-PadMH4)*%
X83190000Y-60900000D03*
%TD*%
%TO.P,DP_IN3,MH1,MH1*%
%TO.N,unconnected-(DP_IN3-PadMH1)*%
X155570000Y-60900000D03*
D16*
%TO.P,DP_IN3,MH2,MH2*%
%TO.N,unconnected-(DP_IN3-PadMH2)*%
X155570000Y-54120000D03*
%TO.P,DP_IN3,MH3,MH3*%
%TO.N,unconnected-(DP_IN3-PadMH3)*%
X139070000Y-54120000D03*
D15*
%TO.P,DP_IN3,MH4,MH4*%
%TO.N,unconnected-(DP_IN3-PadMH4)*%
X139070000Y-60900000D03*
%TD*%
%TO.P,DP_IN2,MH1,MH1*%
%TO.N,unconnected-(DP_IN2-PadMH1)*%
X127630000Y-60900000D03*
D16*
%TO.P,DP_IN2,MH2,MH2*%
%TO.N,unconnected-(DP_IN2-PadMH2)*%
X127630000Y-54120000D03*
%TO.P,DP_IN2,MH3,MH3*%
%TO.N,unconnected-(DP_IN2-PadMH3)*%
X111130000Y-54120000D03*
D15*
%TO.P,DP_IN2,MH4,MH4*%
%TO.N,unconnected-(DP_IN2-PadMH4)*%
X111130000Y-60900000D03*
%TD*%
%TO.P,DP_OUT1,MH1,MH1*%
%TO.N,unconnected-(DP_OUT1-PadMH1)*%
X66670000Y-60900000D03*
D16*
%TO.P,DP_OUT1,MH2,MH2*%
%TO.N,unconnected-(DP_OUT1-PadMH2)*%
X66670000Y-54120000D03*
%TO.P,DP_OUT1,MH3,MH3*%
%TO.N,unconnected-(DP_OUT1-PadMH3)*%
X50170000Y-54120000D03*
D15*
%TO.P,DP_OUT1,MH4,MH4*%
%TO.N,unconnected-(DP_OUT1-PadMH4)*%
X50170000Y-60900000D03*
%TD*%
D17*
%TO.P,USB_OUT1,1,VBUS*%
%TO.N,unconnected-(USB_OUT1-VBUS-Pad1)*%
X199700000Y-52692500D03*
D18*
%TO.P,USB_OUT1,2,D-*%
%TO.N,/USB Switch/OUTPUT_DATA-*%
X202200000Y-52692500D03*
%TO.P,USB_OUT1,3,D+*%
%TO.N,/USB Switch/OUTPUT_DATA+*%
X204200000Y-52692500D03*
%TO.P,USB_OUT1,4,GND*%
%TO.N,GND*%
X206700000Y-52692500D03*
D19*
%TO.P,USB_OUT1,5,Shield*%
X196630000Y-55402500D03*
X209770000Y-55402500D03*
%TD*%
D17*
%TO.P,USB_IN1,1,VBUS*%
%TO.N,unconnected-(USB_IN1-VBUS-Pad1)*%
X225720000Y-52692500D03*
D18*
%TO.P,USB_IN1,2,D-*%
%TO.N,/USB Switch/INPUT_DATA-*%
X228220000Y-52692500D03*
%TO.P,USB_IN1,3,D+*%
%TO.N,/USB Switch/INPUT_DATA+*%
X230220000Y-52692500D03*
%TO.P,USB_IN1,4,GND*%
%TO.N,GND*%
X232720000Y-52692500D03*
D19*
%TO.P,USB_IN1,5,Shield*%
X222650000Y-55402500D03*
X235790000Y-55402500D03*
%TD*%
D20*
%TO.N,/Display_1/DPIN1_AUX+*%
X93980000Y-68580000D03*
X104140000Y-81280000D03*
%TO.N,/Display_1/DPIN1_AUX-*%
X93980000Y-66040000D03*
X106680000Y-81280000D03*
%TO.N,/Display_1/DPIN1_HPD*%
X119380000Y-76200000D03*
X101600000Y-71120000D03*
%TO.N,/Display_1/DPIN2_D2+*%
X116840000Y-65420000D03*
X114300000Y-68580000D03*
%TO.N,/Display_1/DPIN2_D3+*%
X118380000Y-65420000D03*
X119380000Y-68580000D03*
%TO.N,/Display_1/DPIN2_AUX+*%
X121920000Y-68580000D03*
X120880000Y-65420000D03*
%TO.N,/Display_1/DPIN3_D1+*%
X119380000Y-88900000D03*
X109220000Y-99005500D03*
%TO.N,/Display_1/DPIN3_D1-*%
X124460000Y-86360000D03*
X111760000Y-99060000D03*
%TO.N,/Display_1/DPIN3_D2+*%
X139700000Y-73660000D03*
X113075997Y-101205000D03*
%TO.N,/Display_1/DPIN3_D2-*%
X119380000Y-99060000D03*
X142240000Y-76200000D03*
%TO.N,/Display_1/DPIN3_D3+*%
X116840000Y-101600000D03*
X142240000Y-83820000D03*
%TO.N,/Display_1/DPIN3_D3-*%
X115130097Y-101599404D03*
X147320000Y-68580000D03*
%TO.N,/Display_1/DPIN3_AUX-*%
X149795500Y-65420000D03*
X142240000Y-101600000D03*
%TO.N,/Display_1/DPOUT_D0+*%
X45720000Y-88900000D03*
X58420000Y-88900000D03*
%TO.N,/Display_1/DPOUT_D0-*%
X46320500Y-89479321D03*
X58420000Y-89499503D03*
%TO.N,/Display_1/DPOUT_D1+*%
X58420000Y-99060000D03*
X46720500Y-94028864D03*
%TO.N,/Display_1/DPOUT_D1-*%
X48260000Y-99060000D03*
X59065000Y-99705000D03*
%TO.N,/Display_1/DPOUT_D2-*%
X78740000Y-101600000D03*
X83343573Y-101204500D03*
%TO.N,/Display_1/DPOUT_D3+*%
X68580000Y-104140000D03*
X67590498Y-73652950D03*
%TO.N,/Display_1/DPOUT_D3-*%
X71120000Y-71120000D03*
X73660000Y-106680000D03*
%TO.N,/Display_1/DPOUT_AUX+*%
X63500000Y-68580000D03*
X63500000Y-109220000D03*
%TO.N,/Display_1/DPOUT_AUX-*%
X68580000Y-111760000D03*
X66040000Y-68580000D03*
%TO.N,/Display_1/DPOUT_HPD*%
X78740000Y-116840000D03*
X76200000Y-81280000D03*
%TO.N,Net-(S1-AUX_C+)*%
X105745000Y-103404500D03*
X104140000Y-96520000D03*
%TO.N,Net-(S1-AUX_C-)*%
X106680000Y-93980000D03*
X106680000Y-105980500D03*
%TO.N,Net-(S1-HPD_C)*%
X96520000Y-116840000D03*
X104140000Y-91029500D03*
%TD*%
D21*
%TO.N,/Display_1/DPIN2_D2+*%
X116840000Y-66040000D02*
X116840000Y-65420000D01*
X116840000Y-66040000D02*
X114300000Y-68580000D01*
%TO.N,/Display_1/DPIN2_D3+*%
X118380000Y-65420000D02*
X119380000Y-66420000D01*
X119380000Y-66420000D02*
X119380000Y-68580000D01*
%TO.N,/Display_1/DPIN2_AUX+*%
X121920000Y-68580000D02*
X121920000Y-66460000D01*
X121920000Y-66460000D02*
X120880000Y-65420000D01*
%TO.N,/Display_1/DPIN3_D1+*%
X109274500Y-99005500D02*
X119380000Y-88900000D01*
X109220000Y-99005500D02*
X109274500Y-99005500D01*
%TO.N,/Display_1/DPIN3_D1-*%
X111760000Y-99060000D02*
X124460000Y-86360000D01*
%TO.N,/Display_1/DPIN3_D2+*%
X139700000Y-74580997D02*
X113075997Y-101205000D01*
X139700000Y-73660000D02*
X139700000Y-74580997D01*
%TO.N,/Display_1/DPIN3_D2-*%
X119380000Y-99060000D02*
X142240000Y-76200000D01*
%TO.N,/Display_1/DPIN3_D3+*%
X116840000Y-101600000D02*
X124460000Y-101600000D01*
X124460000Y-101600000D02*
X142240000Y-83820000D01*
%TO.N,/Display_1/DPIN3_D3-*%
X141229500Y-75500000D02*
X141389950Y-75500000D01*
X147320000Y-69569950D02*
X147320000Y-68580000D01*
X141389950Y-75500000D02*
X147320000Y-69569950D01*
X115130097Y-101599404D02*
X141229500Y-75500000D01*
%TO.N,/Display_1/DPIN3_AUX-*%
X149795500Y-65420000D02*
X149795500Y-66040000D01*
X152400000Y-91440000D02*
X142240000Y-101600000D01*
X149795500Y-66040000D02*
X152400000Y-68644500D01*
X152400000Y-68644500D02*
X152400000Y-91440000D01*
%TO.N,/Display_1/DPOUT_D0+*%
X58420000Y-88900000D02*
X45720000Y-88900000D01*
%TO.N,/Display_1/DPOUT_D0-*%
X56479503Y-89499503D02*
X56459321Y-89479321D01*
X56459321Y-89479321D02*
X46320500Y-89479321D01*
X56479503Y-89499503D02*
X58420000Y-89499503D01*
%TO.N,/Display_1/DPOUT_D1+*%
X46720500Y-94028864D02*
X46720500Y-96655042D01*
X46720500Y-96655042D02*
X49125458Y-99060000D01*
X49125458Y-99060000D02*
X58420000Y-99060000D01*
%TO.N,/Display_1/DPOUT_D1-*%
X48908392Y-99708392D02*
X59061608Y-99708392D01*
X59061608Y-99708392D02*
X59065000Y-99705000D01*
X48260000Y-99060000D02*
X48908392Y-99708392D01*
%TO.N,/Display_1/DPOUT_D2-*%
X82948073Y-101600000D02*
X83343573Y-101204500D01*
X78740000Y-101600000D02*
X82948073Y-101600000D01*
%TO.N,/Display_1/DPOUT_D3+*%
X68580000Y-74642452D02*
X67590498Y-73652950D01*
X68580000Y-104140000D02*
X68580000Y-74642452D01*
%TO.N,/Display_1/DPOUT_D3-*%
X73660000Y-73660000D02*
X71120000Y-71120000D01*
X73660000Y-106680000D02*
X73660000Y-73660000D01*
%TO.N,/Display_1/DPOUT_AUX+*%
X63500000Y-106680000D02*
X63500000Y-109220000D01*
X63500000Y-68580000D02*
X63500000Y-106680000D01*
%TO.N,/Display_1/DPOUT_AUX-*%
X68580000Y-106680000D02*
X68580000Y-111760000D01*
X66040000Y-68580000D02*
X66040000Y-104140000D01*
X66040000Y-104140000D02*
X68580000Y-106680000D01*
D22*
%TO.N,/Display_1/DPOUT_HPD*%
X76200000Y-81280000D02*
X76200000Y-114300000D01*
X76200000Y-114300000D02*
X78740000Y-116840000D01*
%TO.N,Net-(S1-AUX_C+)*%
X104140000Y-101799500D02*
X105745000Y-103404500D01*
X104140000Y-96520000D02*
X104140000Y-101799500D01*
%TO.N,Net-(S1-AUX_C-)*%
X106680000Y-93980000D02*
X106680000Y-105980500D01*
%TO.N,Net-(S1-HPD_C)*%
X107405000Y-93679695D02*
X107405000Y-113575000D01*
X107405000Y-113575000D02*
X104140000Y-116840000D01*
X104140000Y-91029500D02*
X104754805Y-91029500D01*
X104754805Y-91029500D02*
X107405000Y-93679695D01*
X104140000Y-116840000D02*
X96520000Y-116840000D01*
%TD*%
M02*
