%TF.GenerationSoftware,KiCad,Pcbnew,7.0.2*%
%TF.CreationDate,2023-08-08T23:25:05-03:00*%
%TF.ProjectId,USB Switch,55534220-5377-4697-9463-682e6b696361,rev?*%
%TF.SameCoordinates,Original*%
%TF.FileFunction,Copper,L1,Top*%
%TF.FilePolarity,Positive*%
%FSLAX46Y46*%
G04 Gerber Fmt 4.6, Leading zero omitted, Abs format (unit mm)*
G04 Created by KiCad (PCBNEW 7.0.2) date 2023-08-08 23:25:05*
%MOMM*%
%LPD*%
G01*
G04 APERTURE LIST*
G04 Aperture macros list*
%AMRoundRect*
0 Rectangle with rounded corners*
0 $1 Rounding radius*
0 $2 $3 $4 $5 $6 $7 $8 $9 X,Y pos of 4 corners*
0 Add a 4 corners polygon primitive as box body*
4,1,4,$2,$3,$4,$5,$6,$7,$8,$9,$2,$3,0*
0 Add four circle primitives for the rounded corners*
1,1,$1+$1,$2,$3*
1,1,$1+$1,$4,$5*
1,1,$1+$1,$6,$7*
1,1,$1+$1,$8,$9*
0 Add four rect primitives between the rounded corners*
20,1,$1+$1,$2,$3,$4,$5,0*
20,1,$1+$1,$4,$5,$6,$7,0*
20,1,$1+$1,$6,$7,$8,$9,0*
20,1,$1+$1,$8,$9,$2,$3,0*%
G04 Aperture macros list end*
%TA.AperFunction,ComponentPad*%
%ADD10R,1.200000X1.200000*%
%TD*%
%TA.AperFunction,ComponentPad*%
%ADD11C,1.200000*%
%TD*%
%TA.AperFunction,ComponentPad*%
%ADD12C,2.700000*%
%TD*%
%TA.AperFunction,ComponentPad*%
%ADD13C,2.280000*%
%TD*%
%TA.AperFunction,SMDPad,CuDef*%
%ADD14RoundRect,0.250000X0.262500X0.450000X-0.262500X0.450000X-0.262500X-0.450000X0.262500X-0.450000X0*%
%TD*%
%TA.AperFunction,SMDPad,CuDef*%
%ADD15RoundRect,0.250000X-0.262500X-0.450000X0.262500X-0.450000X0.262500X0.450000X-0.262500X0.450000X0*%
%TD*%
%TA.AperFunction,SMDPad,CuDef*%
%ADD16RoundRect,0.008100X-0.421900X-0.126900X0.421900X-0.126900X0.421900X0.126900X-0.421900X0.126900X0*%
%TD*%
%TA.AperFunction,SMDPad,CuDef*%
%ADD17RoundRect,0.008100X0.126900X-0.421900X0.126900X0.421900X-0.126900X0.421900X-0.126900X-0.421900X0*%
%TD*%
%TA.AperFunction,SMDPad,CuDef*%
%ADD18R,5.200000X4.500000*%
%TD*%
%TA.AperFunction,ComponentPad*%
%ADD19C,0.800000*%
%TD*%
%TA.AperFunction,ComponentPad*%
%ADD20C,6.400000*%
%TD*%
%TA.AperFunction,ComponentPad*%
%ADD21RoundRect,0.250001X-0.899999X0.899999X-0.899999X-0.899999X0.899999X-0.899999X0.899999X0.899999X0*%
%TD*%
%TA.AperFunction,ComponentPad*%
%ADD22C,2.300000*%
%TD*%
%TA.AperFunction,SMDPad,CuDef*%
%ADD23RoundRect,0.243750X0.243750X0.456250X-0.243750X0.456250X-0.243750X-0.456250X0.243750X-0.456250X0*%
%TD*%
%TA.AperFunction,ViaPad*%
%ADD24C,0.400000*%
%TD*%
%TA.AperFunction,Conductor*%
%ADD25C,0.500000*%
%TD*%
%TA.AperFunction,Conductor*%
%ADD26C,0.250000*%
%TD*%
%TA.AperFunction,Conductor*%
%ADD27C,0.200000*%
%TD*%
G04 APERTURE END LIST*
D10*
%TO.P,USB1,1,VBUS*%
%TO.N,/Switch/+5V*%
X66381087Y-82095000D03*
D11*
%TO.P,USB1,2,D-*%
%TO.N,/Switch/D0-*%
X63881087Y-82095000D03*
%TO.P,USB1,3,D+*%
%TO.N,/Switch/D0+*%
X61881087Y-82095000D03*
%TO.P,USB1,4,GND*%
%TO.N,GND*%
X59381087Y-82095000D03*
%TO.P,USB1,5,SSRX-*%
%TO.N,/Switch/D1-*%
X58881087Y-83595000D03*
%TO.P,USB1,6,SSRX+*%
%TO.N,/Switch/D1+*%
X60881087Y-83595000D03*
%TO.P,USB1,7,GND_DRAIN*%
%TO.N,GND*%
X62881087Y-83595000D03*
%TO.P,USB1,8,SSTX-*%
%TO.N,/Switch/D2-*%
X64881087Y-83595000D03*
%TO.P,USB1,9,SSTX+*%
%TO.N,/Switch/D2+*%
X66881087Y-83595000D03*
D12*
%TO.P,USB1,MH1,MH1*%
%TO.N,unconnected-(USB1-PadMH1)*%
X69281087Y-82845000D03*
%TO.P,USB1,MH2,MH2*%
%TO.N,unconnected-(USB1-PadMH2)*%
X56481087Y-82845000D03*
D13*
%TO.P,USB1,MH3,MH3*%
%TO.N,unconnected-(USB1-PadMH3)*%
X69281087Y-74345000D03*
%TO.P,USB1,MH4,MH4*%
%TO.N,unconnected-(USB1-PadMH4)*%
X56481087Y-74345000D03*
%TD*%
D14*
%TO.P,R3,1*%
%TO.N,/S1*%
X128245000Y-119380000D03*
%TO.P,R3,2*%
%TO.N,/GND*%
X126420000Y-119380000D03*
%TD*%
D10*
%TO.P,USB4,1,VBUS*%
%TO.N,unconnected-(USB4-VBUS-Pad1)*%
X136281087Y-82095000D03*
D11*
%TO.P,USB4,2,D-*%
%TO.N,/Switch/USB_C_D0-*%
X133781087Y-82095000D03*
%TO.P,USB4,3,D+*%
%TO.N,/Switch/USB_C_D0+*%
X131781087Y-82095000D03*
%TO.P,USB4,4,GND*%
%TO.N,unconnected-(USB4-GND-Pad4)*%
X129281087Y-82095000D03*
%TO.P,USB4,5,SSRX-*%
%TO.N,/Switch/USB_C_D1-*%
X128781087Y-83595000D03*
%TO.P,USB4,6,SSRX+*%
%TO.N,/Switch/USB_C_D1+*%
X130781087Y-83595000D03*
%TO.P,USB4,7,GND_DRAIN*%
%TO.N,unconnected-(USB4-GND_DRAIN-Pad7)*%
X132781087Y-83595000D03*
%TO.P,USB4,8,SSTX-*%
%TO.N,/Switch/USB_C_D2-*%
X134781087Y-83595000D03*
%TO.P,USB4,9,SSTX+*%
%TO.N,/Switch/USB_C_D2+*%
X136781087Y-83595000D03*
D12*
%TO.P,USB4,MH1,MH1*%
%TO.N,unconnected-(USB4-PadMH1)*%
X139181087Y-82845000D03*
%TO.P,USB4,MH2,MH2*%
%TO.N,unconnected-(USB4-PadMH2)*%
X126381087Y-82845000D03*
D13*
%TO.P,USB4,MH3,MH3*%
%TO.N,unconnected-(USB4-PadMH3)*%
X139181087Y-74345000D03*
%TO.P,USB4,MH4,MH4*%
%TO.N,unconnected-(USB4-PadMH4)*%
X126381087Y-74345000D03*
%TD*%
D15*
%TO.P,R1,1*%
%TO.N,/+5V*%
X129175000Y-97000000D03*
%TO.P,R1,2*%
%TO.N,Net-(D1-A)*%
X131000000Y-97000000D03*
%TD*%
D10*
%TO.P,USB3,1,VBUS*%
%TO.N,unconnected-(USB3-VBUS-Pad1)*%
X114056087Y-82095000D03*
D11*
%TO.P,USB3,2,D-*%
%TO.N,/Switch/USB_B_D0-*%
X111556087Y-82095000D03*
%TO.P,USB3,3,D+*%
%TO.N,/Switch/USB_B_D0+*%
X109556087Y-82095000D03*
%TO.P,USB3,4,GND*%
%TO.N,unconnected-(USB3-GND-Pad4)*%
X107056087Y-82095000D03*
%TO.P,USB3,5,SSRX-*%
%TO.N,/Switch/USB_B_D1-*%
X106556087Y-83595000D03*
%TO.P,USB3,6,SSRX+*%
%TO.N,/Switch/USB_B_D1+*%
X108556087Y-83595000D03*
%TO.P,USB3,7,GND_DRAIN*%
%TO.N,unconnected-(USB3-GND_DRAIN-Pad7)*%
X110556087Y-83595000D03*
%TO.P,USB3,8,SSTX-*%
%TO.N,/Switch/USB_B_D2-*%
X112556087Y-83595000D03*
%TO.P,USB3,9,SSTX+*%
%TO.N,/Switch/USB_B_D2+*%
X114556087Y-83595000D03*
D12*
%TO.P,USB3,MH1,MH1*%
%TO.N,unconnected-(USB3-PadMH1)*%
X116956087Y-82845000D03*
%TO.P,USB3,MH2,MH2*%
%TO.N,unconnected-(USB3-PadMH2)*%
X104156087Y-82845000D03*
D13*
%TO.P,USB3,MH3,MH3*%
%TO.N,unconnected-(USB3-PadMH3)*%
X116956087Y-74345000D03*
%TO.P,USB3,MH4,MH4*%
%TO.N,unconnected-(USB3-PadMH4)*%
X104156087Y-74345000D03*
%TD*%
D16*
%TO.P,S1,1,AUX_SEL*%
%TO.N,/S1*%
X75198000Y-112445000D03*
%TO.P,S1,2,D0_C+*%
%TO.N,/Switch/D0+*%
X75198000Y-112945000D03*
%TO.P,S1,3,D0_C-*%
%TO.N,/Switch/D0-*%
X75198000Y-113445000D03*
%TO.P,S1,4,GND0*%
%TO.N,GND*%
X75198000Y-113945000D03*
%TO.P,S1,5,D1_C+*%
%TO.N,/Switch/D1+*%
X75198000Y-114445000D03*
%TO.P,S1,6,D1_C-*%
%TO.N,/Switch/D1-*%
X75198000Y-114945000D03*
%TO.P,S1,7,GND1*%
%TO.N,GND*%
X75198000Y-115445000D03*
%TO.P,S1,8,D2_C+*%
%TO.N,/Switch/D2+*%
X75198000Y-115945000D03*
%TO.P,S1,9,D2_C-*%
%TO.N,/Switch/D2-*%
X75198000Y-116445000D03*
%TO.P,S1,10,GND2*%
%TO.N,GND*%
X75198000Y-116945000D03*
%TO.P,S1,11,D3_C+*%
%TO.N,unconnected-(S1-D3_C+-Pad11)*%
X75198000Y-117445000D03*
%TO.P,S1,12,D3_C-*%
%TO.N,unconnected-(S1-D3_C--Pad12)*%
X75198000Y-117945000D03*
%TO.P,S1,13,AUX_C+*%
%TO.N,unconnected-(S1-AUX_C+-Pad13)*%
X75198000Y-118445000D03*
%TO.P,S1,14,AUX_C-*%
%TO.N,unconnected-(S1-AUX_C--Pad14)*%
X75198000Y-118945000D03*
D17*
%TO.P,S1,15,HPD_C*%
%TO.N,unconnected-(S1-HPD_C-Pad15)*%
X75883000Y-119630000D03*
%TO.P,S1,16,HPD_A*%
%TO.N,unconnected-(S1-HPD_A-Pad16)*%
X76383000Y-119630000D03*
%TO.P,S1,17,HPD_B*%
%TO.N,unconnected-(S1-HPD_B-Pad17)*%
X76883000Y-119630000D03*
%TO.P,S1,18,DDC_CLK_C*%
%TO.N,unconnected-(S1-DDC_CLK_C-Pad18)*%
X77383000Y-119630000D03*
%TO.P,S1,19,VDD0*%
%TO.N,/Switch/+5V*%
X77883000Y-119630000D03*
%TO.P,S1,20,NC0*%
%TO.N,unconnected-(S1-NC0-Pad20)*%
X78383000Y-119630000D03*
%TO.P,S1,21,NC1*%
%TO.N,unconnected-(S1-NC1-Pad21)*%
X78883000Y-119630000D03*
%TO.P,S1,22,DDC_CLK_B*%
%TO.N,unconnected-(S1-DDC_CLK_B-Pad22)*%
X79383000Y-119630000D03*
%TO.P,S1,23,DDC_DAT_B*%
%TO.N,unconnected-(S1-DDC_DAT_B-Pad23)*%
X79883000Y-119630000D03*
%TO.P,S1,24,AUX_B+*%
%TO.N,unconnected-(S1-AUX_B+-Pad24)*%
X80383000Y-119630000D03*
%TO.P,S1,25,AUX_B-*%
%TO.N,unconnected-(S1-AUX_B--Pad25)*%
X80883000Y-119630000D03*
%TO.P,S1,26,DDC_DAT_C*%
%TO.N,unconnected-(S1-DDC_DAT_C-Pad26)*%
X81383000Y-119630000D03*
%TO.P,S1,27,DDC_CLK_A*%
%TO.N,unconnected-(S1-DDC_CLK_A-Pad27)*%
X81883000Y-119630000D03*
%TO.P,S1,28,DDC_DAT_A*%
%TO.N,unconnected-(S1-DDC_DAT_A-Pad28)*%
X82383000Y-119630000D03*
D16*
%TO.P,S1,29,AUX_A-*%
%TO.N,unconnected-(S1-AUX_A--Pad29)*%
X83068000Y-118945000D03*
%TO.P,S1,30,AUX_A+*%
%TO.N,unconnected-(S1-AUX_A+-Pad30)*%
X83068000Y-118445000D03*
%TO.P,S1,31,D3_B-*%
%TO.N,unconnected-(S1-D3_B--Pad31)*%
X83068000Y-117945000D03*
%TO.P,S1,32,D3_B+*%
%TO.N,unconnected-(S1-D3_B+-Pad32)*%
X83068000Y-117445000D03*
%TO.P,S1,33,GND3*%
%TO.N,GND*%
X83068000Y-116945000D03*
%TO.P,S1,34,D2_B-*%
%TO.N,/Switch/USB_C_D2-*%
X83068000Y-116445000D03*
%TO.P,S1,35,D2_B+*%
%TO.N,/Switch/USB_C_D2+*%
X83068000Y-115945000D03*
%TO.P,S1,36,GND4*%
%TO.N,GND*%
X83068000Y-115445000D03*
%TO.P,S1,37,D1_B-*%
%TO.N,/Switch/USB_C_D1-*%
X83068000Y-114945000D03*
%TO.P,S1,38,D1_B+*%
%TO.N,/Switch/USB_C_D1+*%
X83068000Y-114445000D03*
%TO.P,S1,39,GND5*%
%TO.N,GND*%
X83068000Y-113945000D03*
%TO.P,S1,40,D0_B-*%
%TO.N,/Switch/USB_C_D0-*%
X83068000Y-113445000D03*
%TO.P,S1,41,D0_B+*%
%TO.N,/Switch/USB_C_D0+*%
X83068000Y-112945000D03*
%TO.P,S1,42,NC2*%
%TO.N,unconnected-(S1-NC2-Pad42)*%
X83068000Y-112445000D03*
D17*
%TO.P,S1,43,OE*%
%TO.N,/Switch/+5V*%
X82383000Y-111760000D03*
%TO.P,S1,44,D3_A-*%
%TO.N,unconnected-(S1-D3_A--Pad44)*%
X81883000Y-111760000D03*
%TO.P,S1,45,D3_A+*%
%TO.N,unconnected-(S1-D3_A+-Pad45)*%
X81383000Y-111760000D03*
%TO.P,S1,46,GND6*%
%TO.N,GND*%
X80883000Y-111760000D03*
%TO.P,S1,47,D2_A-*%
%TO.N,/Switch/USB_AB_D2-*%
X80383000Y-111760000D03*
%TO.P,S1,48,D2_A+*%
%TO.N,/Switch/USB_AB_D2+*%
X79883000Y-111760000D03*
%TO.P,S1,49,GND7*%
%TO.N,GND*%
X79383000Y-111760000D03*
%TO.P,S1,50,D1_A-*%
%TO.N,/Switch/USB_AB_D1-*%
X78883000Y-111760000D03*
%TO.P,S1,51,D1_A+*%
%TO.N,/Switch/USB_AB_D1+*%
X78383000Y-111760000D03*
%TO.P,S1,52,GND8*%
%TO.N,GND*%
X77883000Y-111760000D03*
%TO.P,S1,53,D0_A-*%
%TO.N,/Switch/USB_AB_D0-*%
X77383000Y-111760000D03*
%TO.P,S1,54,D0_A+*%
%TO.N,/Switch/USB_AB_D0+*%
X76883000Y-111760000D03*
%TO.P,S1,55,VDD1*%
%TO.N,/Switch/+5V*%
X76383000Y-111760000D03*
%TO.P,S1,56,DX_SEL*%
%TO.N,/S1*%
X75883000Y-111760000D03*
D18*
%TO.P,S1,57,PAD*%
%TO.N,GND*%
X79133000Y-115695000D03*
%TD*%
D19*
%TO.P,REF\u002A\u002A,1*%
%TO.N,N/C*%
X51367056Y-91300000D03*
X52070000Y-89602944D03*
X52070000Y-92997056D03*
X53767056Y-88900000D03*
D20*
X53767056Y-91300000D03*
D19*
X53767056Y-93700000D03*
X55464112Y-89602944D03*
X55464112Y-92997056D03*
X56167056Y-91300000D03*
%TD*%
D21*
%TO.P,J1,1,Pin_1*%
%TO.N,/+5V*%
X137492500Y-104140000D03*
D22*
%TO.P,J1,2,Pin_2*%
%TO.N,/GND*%
X137492500Y-108940000D03*
%TO.P,J1,3,Pin_3*%
%TO.N,/S0*%
X137492500Y-113740000D03*
%TO.P,J1,4,Pin_4*%
%TO.N,/S1*%
X137492500Y-118540000D03*
%TO.P,J1,5,Pin_5*%
%TO.N,/CLOCK*%
X137492500Y-123340000D03*
%TD*%
D19*
%TO.P,REF\u002A\u002A,1*%
%TO.N,N/C*%
X139840000Y-91300000D03*
X140542944Y-89602944D03*
X140542944Y-92997056D03*
X142240000Y-88900000D03*
D20*
X142240000Y-91300000D03*
D19*
X142240000Y-93700000D03*
X143937056Y-89602944D03*
X143937056Y-92997056D03*
X144640000Y-91300000D03*
%TD*%
D14*
%TO.P,R4,1*%
%TO.N,/CLOCK*%
X128245000Y-124460000D03*
%TO.P,R4,2*%
%TO.N,/GND*%
X126420000Y-124460000D03*
%TD*%
D16*
%TO.P,S2,1,AUX_SEL*%
%TO.N,/S0*%
X98058000Y-99745000D03*
%TO.P,S2,2,D0_C+*%
%TO.N,/Switch/USB_AB_D0+*%
X98058000Y-100245000D03*
%TO.P,S2,3,D0_C-*%
%TO.N,/Switch/USB_AB_D0-*%
X98058000Y-100745000D03*
%TO.P,S2,4,GND0*%
%TO.N,GND*%
X98058000Y-101245000D03*
%TO.P,S2,5,D1_C+*%
%TO.N,/Switch/USB_AB_D1+*%
X98058000Y-101745000D03*
%TO.P,S2,6,D1_C-*%
%TO.N,/Switch/USB_AB_D1-*%
X98058000Y-102245000D03*
%TO.P,S2,7,GND1*%
%TO.N,GND*%
X98058000Y-102745000D03*
%TO.P,S2,8,D2_C+*%
%TO.N,/Switch/USB_AB_D2+*%
X98058000Y-103245000D03*
%TO.P,S2,9,D2_C-*%
%TO.N,/Switch/USB_AB_D2-*%
X98058000Y-103745000D03*
%TO.P,S2,10,GND2*%
%TO.N,GND*%
X98058000Y-104245000D03*
%TO.P,S2,11,D3_C+*%
%TO.N,unconnected-(S2-D3_C+-Pad11)*%
X98058000Y-104745000D03*
%TO.P,S2,12,D3_C-*%
%TO.N,unconnected-(S2-D3_C--Pad12)*%
X98058000Y-105245000D03*
%TO.P,S2,13,AUX_C+*%
%TO.N,unconnected-(S2-AUX_C+-Pad13)*%
X98058000Y-105745000D03*
%TO.P,S2,14,AUX_C-*%
%TO.N,unconnected-(S2-AUX_C--Pad14)*%
X98058000Y-106245000D03*
D17*
%TO.P,S2,15,HPD_C*%
%TO.N,unconnected-(S2-HPD_C-Pad15)*%
X98743000Y-106930000D03*
%TO.P,S2,16,HPD_A*%
%TO.N,unconnected-(S2-HPD_A-Pad16)*%
X99243000Y-106930000D03*
%TO.P,S2,17,HPD_B*%
%TO.N,unconnected-(S2-HPD_B-Pad17)*%
X99743000Y-106930000D03*
%TO.P,S2,18,DDC_CLK_C*%
%TO.N,unconnected-(S2-DDC_CLK_C-Pad18)*%
X100243000Y-106930000D03*
%TO.P,S2,19,VDD0*%
%TO.N,/Switch/+5V*%
X100743000Y-106930000D03*
%TO.P,S2,20,NC0*%
%TO.N,unconnected-(S2-NC0-Pad20)*%
X101243000Y-106930000D03*
%TO.P,S2,21,NC1*%
%TO.N,unconnected-(S2-NC1-Pad21)*%
X101743000Y-106930000D03*
%TO.P,S2,22,DDC_CLK_B*%
%TO.N,unconnected-(S2-DDC_CLK_B-Pad22)*%
X102243000Y-106930000D03*
%TO.P,S2,23,DDC_DAT_B*%
%TO.N,unconnected-(S2-DDC_DAT_B-Pad23)*%
X102743000Y-106930000D03*
%TO.P,S2,24,AUX_B+*%
%TO.N,unconnected-(S2-AUX_B+-Pad24)*%
X103243000Y-106930000D03*
%TO.P,S2,25,AUX_B-*%
%TO.N,unconnected-(S2-AUX_B--Pad25)*%
X103743000Y-106930000D03*
%TO.P,S2,26,DDC_DAT_C*%
%TO.N,unconnected-(S2-DDC_DAT_C-Pad26)*%
X104243000Y-106930000D03*
%TO.P,S2,27,DDC_CLK_A*%
%TO.N,unconnected-(S2-DDC_CLK_A-Pad27)*%
X104743000Y-106930000D03*
%TO.P,S2,28,DDC_DAT_A*%
%TO.N,unconnected-(S2-DDC_DAT_A-Pad28)*%
X105243000Y-106930000D03*
D16*
%TO.P,S2,29,AUX_A-*%
%TO.N,unconnected-(S2-AUX_A--Pad29)*%
X105928000Y-106245000D03*
%TO.P,S2,30,AUX_A+*%
%TO.N,unconnected-(S2-AUX_A+-Pad30)*%
X105928000Y-105745000D03*
%TO.P,S2,31,D3_B-*%
%TO.N,unconnected-(S2-D3_B--Pad31)*%
X105928000Y-105245000D03*
%TO.P,S2,32,D3_B+*%
%TO.N,unconnected-(S2-D3_B+-Pad32)*%
X105928000Y-104745000D03*
%TO.P,S2,33,GND3*%
%TO.N,GND*%
X105928000Y-104245000D03*
%TO.P,S2,34,D2_B-*%
%TO.N,/Switch/USB_B_D2-*%
X105928000Y-103745000D03*
%TO.P,S2,35,D2_B+*%
%TO.N,/Switch/USB_B_D2+*%
X105928000Y-103245000D03*
%TO.P,S2,36,GND4*%
%TO.N,GND*%
X105928000Y-102745000D03*
%TO.P,S2,37,D1_B-*%
%TO.N,/Switch/USB_B_D1-*%
X105928000Y-102245000D03*
%TO.P,S2,38,D1_B+*%
%TO.N,/Switch/USB_B_D1+*%
X105928000Y-101745000D03*
%TO.P,S2,39,GND5*%
%TO.N,GND*%
X105928000Y-101245000D03*
%TO.P,S2,40,D0_B-*%
%TO.N,/Switch/USB_B_D0-*%
X105928000Y-100745000D03*
%TO.P,S2,41,D0_B+*%
%TO.N,/Switch/USB_B_D0+*%
X105928000Y-100245000D03*
%TO.P,S2,42,NC2*%
%TO.N,unconnected-(S2-NC2-Pad42)*%
X105928000Y-99745000D03*
D17*
%TO.P,S2,43,OE*%
%TO.N,/Switch/+5V*%
X105243000Y-99060000D03*
%TO.P,S2,44,D3_A-*%
%TO.N,unconnected-(S2-D3_A--Pad44)*%
X104743000Y-99060000D03*
%TO.P,S2,45,D3_A+*%
%TO.N,unconnected-(S2-D3_A+-Pad45)*%
X104243000Y-99060000D03*
%TO.P,S2,46,GND6*%
%TO.N,GND*%
X103743000Y-99060000D03*
%TO.P,S2,47,D2_A-*%
%TO.N,/Switch/USB_A_D2-*%
X103243000Y-99060000D03*
%TO.P,S2,48,D2_A+*%
%TO.N,/Switch/USB_A_D2+*%
X102743000Y-99060000D03*
%TO.P,S2,49,GND7*%
%TO.N,GND*%
X102243000Y-99060000D03*
%TO.P,S2,50,D1_A-*%
%TO.N,/Switch/USB_A_D1-*%
X101743000Y-99060000D03*
%TO.P,S2,51,D1_A+*%
%TO.N,/Switch/USB_A_D1+*%
X101243000Y-99060000D03*
%TO.P,S2,52,GND8*%
%TO.N,GND*%
X100743000Y-99060000D03*
%TO.P,S2,53,D0_A-*%
%TO.N,/Switch/USB_A_D0-*%
X100243000Y-99060000D03*
%TO.P,S2,54,D0_A+*%
%TO.N,/Switch/USB_A_D0+*%
X99743000Y-99060000D03*
%TO.P,S2,55,VDD1*%
%TO.N,/Switch/+5V*%
X99243000Y-99060000D03*
%TO.P,S2,56,DX_SEL*%
%TO.N,/S0*%
X98743000Y-99060000D03*
D18*
%TO.P,S2,57,PAD*%
%TO.N,GND*%
X101993000Y-102995000D03*
%TD*%
D23*
%TO.P,D1,1,K*%
%TO.N,/GND*%
X137042500Y-97000000D03*
%TO.P,D1,2,A*%
%TO.N,Net-(D1-A)*%
X135167500Y-97000000D03*
%TD*%
D19*
%TO.P,REF\u002A\u002A,1*%
%TO.N,N/C*%
X50512944Y-129967056D03*
X51215888Y-128270000D03*
X51215888Y-131664112D03*
X52912944Y-127567056D03*
D20*
X52912944Y-129967056D03*
D19*
X52912944Y-132367056D03*
X54610000Y-128270000D03*
X54610000Y-131664112D03*
X55312944Y-129967056D03*
%TD*%
%TO.P,REF\u002A\u002A,1*%
%TO.N,N/C*%
X140682944Y-129540000D03*
X141385888Y-127842944D03*
X141385888Y-131237056D03*
X143082944Y-127140000D03*
D20*
X143082944Y-129540000D03*
D19*
X143082944Y-131940000D03*
X144780000Y-127842944D03*
X144780000Y-131237056D03*
X145482944Y-129540000D03*
%TD*%
D10*
%TO.P,USB2,1,VBUS*%
%TO.N,unconnected-(USB2-VBUS-Pad1)*%
X91831087Y-82095000D03*
D11*
%TO.P,USB2,2,D-*%
%TO.N,/Switch/USB_A_D0-*%
X89331087Y-82095000D03*
%TO.P,USB2,3,D+*%
%TO.N,/Switch/USB_A_D0+*%
X87331087Y-82095000D03*
%TO.P,USB2,4,GND*%
%TO.N,unconnected-(USB2-GND-Pad4)*%
X84831087Y-82095000D03*
%TO.P,USB2,5,SSRX-*%
%TO.N,/Switch/USB_A_D1-*%
X84331087Y-83595000D03*
%TO.P,USB2,6,SSRX+*%
%TO.N,/Switch/USB_A_D1+*%
X86331087Y-83595000D03*
%TO.P,USB2,7,GND_DRAIN*%
%TO.N,unconnected-(USB2-GND_DRAIN-Pad7)*%
X88331087Y-83595000D03*
%TO.P,USB2,8,SSTX-*%
%TO.N,/Switch/USB_A_D2-*%
X90331087Y-83595000D03*
%TO.P,USB2,9,SSTX+*%
%TO.N,/Switch/USB_A_D2+*%
X92331087Y-83595000D03*
D12*
%TO.P,USB2,MH1,MH1*%
%TO.N,unconnected-(USB2-PadMH1)*%
X94731087Y-82845000D03*
%TO.P,USB2,MH2,MH2*%
%TO.N,unconnected-(USB2-PadMH2)*%
X81931087Y-82845000D03*
D13*
%TO.P,USB2,MH3,MH3*%
%TO.N,unconnected-(USB2-PadMH3)*%
X94731087Y-74345000D03*
%TO.P,USB2,MH4,MH4*%
%TO.N,unconnected-(USB2-PadMH4)*%
X81931087Y-74345000D03*
%TD*%
D14*
%TO.P,R2,1*%
%TO.N,/S0*%
X128245000Y-114300000D03*
%TO.P,R2,2*%
%TO.N,/GND*%
X126420000Y-114300000D03*
%TD*%
D24*
%TO.N,/GND*%
X138827000Y-97000000D03*
%TO.N,GND*%
X62881087Y-85881087D03*
X97153000Y-102750000D03*
X59000000Y-80000000D03*
%TO.N,/Switch/D1+*%
X71229810Y-113770190D03*
%TO.N,/Switch/D1-*%
X70770190Y-114229810D03*
%TO.N,/Switch/+5V*%
X67000000Y-80000000D03*
%TO.N,/Switch/USB_C_D1-*%
X121229810Y-87770190D03*
X118229810Y-113229810D03*
%TO.N,/Switch/USB_C_D1+*%
X120770190Y-88229810D03*
X117770190Y-112770190D03*
%TO.N,/Switch/USB_B_D2-*%
X115156651Y-95478851D03*
%TO.N,/Switch/USB_B_D2+*%
X110000000Y-102545000D03*
X116000000Y-96000000D03*
%TO.N,/Switch/USB_B_D0-*%
X110000000Y-99325000D03*
%TO.N,/Switch/USB_B_D0+*%
X110000000Y-98675000D03*
%TO.N,/Switch/USB_A_D2+*%
X102743500Y-97000000D03*
X103274499Y-95000000D03*
%TO.N,/Switch/USB_A_D1-*%
X84229810Y-86770190D03*
X96000000Y-89675000D03*
%TO.N,/Switch/USB_A_D1+*%
X101499500Y-95000000D03*
X101243000Y-97000000D03*
X83770190Y-87229810D03*
X96000000Y-90325000D03*
%TO.N,/+5V*%
X127397000Y-97000000D03*
%TD*%
D25*
%TO.N,/GND*%
X124792500Y-111760000D02*
X127612500Y-108940000D01*
X127612500Y-108940000D02*
X137492500Y-108940000D01*
D26*
X126420000Y-119380000D02*
X124792500Y-117752500D01*
X126420000Y-114300000D02*
X124792500Y-112672500D01*
X138827000Y-97000000D02*
X137042500Y-97000000D01*
D25*
X124792500Y-121920000D02*
X124792500Y-111760000D01*
D26*
X124792500Y-117752500D02*
X124792500Y-111760000D01*
X131780000Y-108940000D02*
X137492500Y-108940000D01*
X124792500Y-112672500D02*
X124792500Y-111760000D01*
X124792500Y-122832500D02*
X124792500Y-121920000D01*
X126420000Y-124460000D02*
X124792500Y-122832500D01*
D27*
%TO.N,/Switch/D0+*%
X62656086Y-81320001D02*
X61881087Y-82095000D01*
X68225000Y-91093200D02*
X77225000Y-82093200D01*
X74527999Y-112970000D02*
X73288200Y-112970000D01*
X74552999Y-112945000D02*
X74527999Y-112970000D01*
X62656086Y-80025714D02*
X62656086Y-81320001D01*
X75198000Y-112945000D02*
X74552999Y-112945000D01*
X75093200Y-75775000D02*
X75083200Y-75785000D01*
X68684619Y-75785000D02*
X68674619Y-75775000D01*
X73288200Y-112970000D02*
X68225000Y-107906800D01*
X66906800Y-75775000D02*
X62656086Y-80025714D01*
X75083200Y-75785000D02*
X68684619Y-75785000D01*
X68674619Y-75775000D02*
X66906800Y-75775000D01*
X77225000Y-82093200D02*
X77225000Y-77906800D01*
X68225000Y-107906800D02*
X68225000Y-91093200D01*
X77225000Y-77906800D02*
X75093200Y-75775000D01*
%TO.N,/Switch/D0-*%
X67093200Y-76225000D02*
X63106088Y-80212112D01*
X63106088Y-81320001D02*
X63881087Y-82095000D01*
X76775000Y-81906800D02*
X76775000Y-78093200D01*
X74906800Y-76225000D02*
X67093200Y-76225000D01*
X75198000Y-113445000D02*
X74552999Y-113445000D01*
X74527999Y-113420000D02*
X73101800Y-113420000D01*
X63106088Y-80212112D02*
X63106088Y-81320001D01*
X67775000Y-90906800D02*
X76775000Y-81906800D01*
X74552999Y-113445000D02*
X74527999Y-113420000D01*
X67775000Y-108093200D02*
X67775000Y-90906800D01*
X73101800Y-113420000D02*
X67775000Y-108093200D01*
X76775000Y-78093200D02*
X74906800Y-76225000D01*
D26*
%TO.N,GND*%
X97153000Y-102750000D02*
X97158000Y-102745000D01*
X97158000Y-102745000D02*
X98058000Y-102745000D01*
D27*
%TO.N,/Switch/D1+*%
X74552999Y-114445000D02*
X74527999Y-114470000D01*
X71229810Y-113911611D02*
X71229810Y-113770190D01*
X74527999Y-114470000D02*
X71788199Y-114470000D01*
X71788199Y-114470000D02*
X71229810Y-113911611D01*
X75198000Y-114445000D02*
X74552999Y-114445000D01*
%TO.N,/Switch/D1-*%
X70911611Y-114229810D02*
X70770190Y-114229810D01*
X71601801Y-114920000D02*
X70911611Y-114229810D01*
X74527999Y-114920000D02*
X71601801Y-114920000D01*
X74552999Y-114945000D02*
X74527999Y-114920000D01*
X75198000Y-114945000D02*
X74552999Y-114945000D01*
%TO.N,/Switch/D2+*%
X69288200Y-115970000D02*
X74527999Y-115970000D01*
X66881087Y-83595000D02*
X66106088Y-84369999D01*
X74552999Y-115945000D02*
X75198000Y-115945000D01*
X74527999Y-115970000D02*
X74552999Y-115945000D01*
X66106088Y-112787888D02*
X69288200Y-115970000D01*
X66106088Y-84369999D02*
X66106088Y-112787888D01*
%TO.N,/Switch/D2-*%
X74552999Y-116445000D02*
X75198000Y-116445000D01*
X65656086Y-112974286D02*
X69101800Y-116420000D01*
X74527999Y-116420000D02*
X74552999Y-116445000D01*
X69101800Y-116420000D02*
X74527999Y-116420000D01*
X65656086Y-84369999D02*
X65656086Y-112974286D01*
X64881087Y-83595000D02*
X65656086Y-84369999D01*
%TO.N,/Switch/USB_C_D2-*%
X117898200Y-116420000D02*
X134093200Y-100225000D01*
X146225000Y-81906800D02*
X141093200Y-76775000D01*
X133775000Y-81195000D02*
X134153880Y-81195000D01*
X83738001Y-116420000D02*
X117898200Y-116420000D01*
X134681087Y-81722207D02*
X134681087Y-82131397D01*
X134781087Y-82231397D02*
X134781087Y-83595000D01*
X133775000Y-78906800D02*
X133775000Y-81195000D01*
X134681087Y-82131397D02*
X134781087Y-82231397D01*
X146225000Y-96093200D02*
X146225000Y-81906800D01*
X142093200Y-100225000D02*
X146225000Y-96093200D01*
X134153880Y-81195000D02*
X134681087Y-81722207D01*
X83713001Y-116445000D02*
X83738001Y-116420000D01*
X135906800Y-76775000D02*
X133775000Y-78906800D01*
X83068000Y-116445000D02*
X83713001Y-116445000D01*
X141093200Y-76775000D02*
X135906800Y-76775000D01*
X134093200Y-100225000D02*
X142093200Y-100225000D01*
%TO.N,/Switch/USB_C_D2+*%
X145775000Y-95906800D02*
X145775000Y-82093200D01*
X135131068Y-81944981D02*
X135381087Y-82195000D01*
X135381087Y-82195000D02*
X135381087Y-81195000D01*
X141906800Y-99775000D02*
X145775000Y-95906800D01*
X136181087Y-82995000D02*
X136781087Y-83595000D01*
X83738001Y-115970000D02*
X117711800Y-115970000D01*
X134225000Y-80745019D02*
X134340269Y-80745019D01*
X145775000Y-82093200D02*
X140906800Y-77225000D01*
X136093200Y-77225000D02*
X134225000Y-79093200D01*
X135131068Y-81535819D02*
X135131068Y-81944981D01*
X134340269Y-80745019D02*
X135131068Y-81535819D01*
X117711800Y-115970000D02*
X133906800Y-99775000D01*
X134225000Y-79093200D02*
X134225000Y-80745019D01*
X83068000Y-115945000D02*
X83713001Y-115945000D01*
X133906800Y-99775000D02*
X141906800Y-99775000D01*
X137181087Y-81195000D02*
X137181087Y-82995000D01*
X137181087Y-82995000D02*
X136181087Y-82995000D01*
X135381087Y-81195000D02*
X137181087Y-81195000D01*
X83713001Y-115945000D02*
X83738001Y-115970000D01*
X140906800Y-77225000D02*
X136093200Y-77225000D01*
%TO.N,/Switch/USB_C_D1-*%
X125959881Y-87779809D02*
X128781087Y-84958603D01*
X83738001Y-114920000D02*
X116398199Y-114920000D01*
X116398199Y-114920000D02*
X118088389Y-113229810D01*
X83068000Y-114945000D02*
X83713001Y-114945000D01*
X121229810Y-87770190D02*
X121239429Y-87779809D01*
X121239429Y-87779809D02*
X125959881Y-87779809D01*
X118088389Y-113229810D02*
X118229810Y-113229810D01*
X83713001Y-114945000D02*
X83738001Y-114920000D01*
X128781087Y-84958603D02*
X128781087Y-83595000D01*
%TO.N,/Switch/USB_C_D1+*%
X120982323Y-88229810D02*
X121022703Y-88270190D01*
X121477297Y-88229810D02*
X126146277Y-88229810D01*
X116211801Y-114470000D02*
X117770190Y-112911611D01*
X120770190Y-88229810D02*
X120982323Y-88229810D01*
X83738001Y-114470000D02*
X116211801Y-114470000D01*
X121022703Y-88270190D02*
X121436917Y-88270190D01*
X117770190Y-112911611D02*
X117770190Y-112770190D01*
X126146277Y-88229810D02*
X130781087Y-83595000D01*
X83713001Y-114445000D02*
X83738001Y-114470000D01*
X121436917Y-88270190D02*
X121477297Y-88229810D01*
X83068000Y-114445000D02*
X83713001Y-114445000D01*
%TO.N,/Switch/USB_C_D0-*%
X133006088Y-84642792D02*
X133006088Y-92312112D01*
X128684683Y-98000000D02*
X128109683Y-97425000D01*
X133681087Y-83222207D02*
X133681087Y-83967793D01*
X133167483Y-82708604D02*
X133681087Y-83222207D01*
X111898200Y-113420000D02*
X83738001Y-113420000D01*
X128109683Y-97425000D02*
X127893200Y-97425000D01*
X133681087Y-83967793D02*
X133006088Y-84642792D01*
X127893200Y-97425000D02*
X111898200Y-113420000D01*
X83738001Y-113420000D02*
X83713001Y-113445000D01*
X133781087Y-82095000D02*
X133167483Y-82708604D01*
X129987500Y-95330700D02*
X129987500Y-97677817D01*
X83713001Y-113445000D02*
X83068000Y-113445000D01*
X129665317Y-98000000D02*
X128684683Y-98000000D01*
X129987500Y-97677817D02*
X129665317Y-98000000D01*
X133006088Y-92312112D02*
X129987500Y-95330700D01*
%TO.N,/Switch/USB_C_D0+*%
X128181800Y-96500000D02*
X127189893Y-96500000D01*
X131881087Y-83967793D02*
X132556086Y-84642792D01*
X111711800Y-112970000D02*
X83738001Y-112970000D01*
X131881087Y-83222207D02*
X131881087Y-83967793D01*
X132556086Y-84642792D02*
X132556086Y-92125714D01*
X127189893Y-96500000D02*
X126897000Y-96792893D01*
X132556086Y-92125714D02*
X128181800Y-96500000D01*
X132394691Y-82708604D02*
X131881087Y-83222207D01*
X83738001Y-112970000D02*
X83713001Y-112945000D01*
X126897000Y-96792893D02*
X126897000Y-97207107D01*
X126897000Y-97207107D02*
X127185846Y-97495954D01*
X127185846Y-97495954D02*
X111711800Y-112970000D01*
X83713001Y-112945000D02*
X83068000Y-112945000D01*
X131781087Y-82095000D02*
X132394691Y-82708604D01*
%TO.N,/Switch/USB_AB_D2-*%
X80383000Y-111114999D02*
X80383000Y-111760000D01*
X87598200Y-103720000D02*
X80358000Y-110960200D01*
X97387999Y-103720000D02*
X87598200Y-103720000D01*
X80358000Y-110960200D02*
X80358000Y-111089999D01*
X98058000Y-103745000D02*
X97412999Y-103745000D01*
X80358000Y-111089999D02*
X80383000Y-111114999D01*
X97412999Y-103745000D02*
X97387999Y-103720000D01*
%TO.N,/Switch/USB_AB_D2+*%
X98058000Y-103245000D02*
X97412999Y-103245000D01*
X79908000Y-110773800D02*
X79908000Y-111089999D01*
X87411800Y-103270000D02*
X79908000Y-110773800D01*
X79883000Y-111114999D02*
X79883000Y-111760000D01*
X97387999Y-103270000D02*
X87411800Y-103270000D01*
X79908000Y-111089999D02*
X79883000Y-111114999D01*
X97412999Y-103245000D02*
X97387999Y-103270000D01*
%TO.N,/Switch/USB_AB_D1-*%
X97387999Y-102220000D02*
X87098200Y-102220000D01*
X97412999Y-102245000D02*
X97387999Y-102220000D01*
X98058000Y-102245000D02*
X97412999Y-102245000D01*
X87098200Y-102220000D02*
X78858000Y-110460200D01*
X78858000Y-110460200D02*
X78858000Y-111089999D01*
X78883000Y-111114999D02*
X78883000Y-111760000D01*
X78858000Y-111089999D02*
X78883000Y-111114999D01*
%TO.N,/Switch/USB_AB_D1+*%
X98058000Y-101745000D02*
X97412999Y-101745000D01*
X86911800Y-101770000D02*
X78408000Y-110273800D01*
X97412999Y-101745000D02*
X97387999Y-101770000D01*
X78408000Y-110273800D02*
X78408000Y-111089999D01*
X78383000Y-111114999D02*
X78383000Y-111760000D01*
X97387999Y-101770000D02*
X86911800Y-101770000D01*
X78408000Y-111089999D02*
X78383000Y-111114999D01*
%TO.N,/Switch/USB_AB_D0-*%
X98058000Y-100745000D02*
X97412999Y-100745000D01*
X97387999Y-100720000D02*
X86598200Y-100720000D01*
X77383000Y-111114999D02*
X77383000Y-111760000D01*
X97412999Y-100745000D02*
X97387999Y-100720000D01*
X86598200Y-100720000D02*
X77358000Y-109960200D01*
X77358000Y-109960200D02*
X77358000Y-111089999D01*
X77358000Y-111089999D02*
X77383000Y-111114999D01*
%TO.N,/Switch/USB_AB_D0+*%
X97387999Y-100270000D02*
X86411800Y-100270000D01*
X97412999Y-100245000D02*
X97387999Y-100270000D01*
X76883000Y-111114999D02*
X76883000Y-111760000D01*
X76908000Y-109773800D02*
X76908000Y-111089999D01*
X76908000Y-111089999D02*
X76883000Y-111114999D01*
X98058000Y-100245000D02*
X97412999Y-100245000D01*
X86411800Y-100270000D02*
X76908000Y-109773800D01*
%TO.N,/Switch/USB_B_D2-*%
X109461397Y-103720000D02*
X110136397Y-103045000D01*
X110955000Y-103045000D02*
X115156651Y-98843349D01*
X105928000Y-103745000D02*
X106573001Y-103745000D01*
X115156651Y-98843349D02*
X115156651Y-95478851D01*
X106598001Y-103720000D02*
X109461397Y-103720000D01*
X110136397Y-103045000D02*
X110955000Y-103045000D01*
X106573001Y-103745000D02*
X106598001Y-103720000D01*
%TO.N,/Switch/USB_B_D2+*%
X110000000Y-102615711D02*
X109370711Y-103245000D01*
X109370711Y-103245000D02*
X105928000Y-103245000D01*
X110000000Y-102545000D02*
X110000000Y-102615711D01*
%TO.N,/Switch/USB_B_D0-*%
X109208445Y-99225001D02*
X107713446Y-100720000D01*
X110000000Y-99325000D02*
X109900001Y-99225001D01*
X106598001Y-100720000D02*
X106573001Y-100745000D01*
X106573001Y-100745000D02*
X105928000Y-100745000D01*
X107713446Y-100720000D02*
X106598001Y-100720000D01*
X109900001Y-99225001D02*
X109208445Y-99225001D01*
%TO.N,/Switch/USB_B_D0+*%
X109900001Y-98774999D02*
X109022047Y-98774999D01*
X106573001Y-100245000D02*
X105928000Y-100245000D01*
X106598001Y-100270000D02*
X106573001Y-100245000D01*
X109022047Y-98774999D02*
X107527046Y-100270000D01*
X107527046Y-100270000D02*
X106598001Y-100270000D01*
X110000000Y-98675000D02*
X109900001Y-98774999D01*
%TO.N,/Switch/USB_A_D2-*%
X93881948Y-84895000D02*
X93481948Y-84495000D01*
X93906800Y-78775000D02*
X98093200Y-78775000D01*
X90331087Y-83595000D02*
X90931087Y-82995000D01*
X90931087Y-82995000D02*
X90931087Y-81195000D01*
X91958294Y-84495000D02*
X91508294Y-84045000D01*
X91508294Y-84045000D02*
X90781087Y-84045000D01*
X94647514Y-84895000D02*
X93881948Y-84895000D01*
X103243000Y-96243000D02*
X102774499Y-95774499D01*
X102774499Y-93021985D02*
X94647514Y-84895000D01*
X98093200Y-78775000D02*
X100225000Y-80906800D01*
X90931087Y-81195000D02*
X91486800Y-81195000D01*
X90781087Y-84045000D02*
X90331087Y-83595000D01*
X103243000Y-99060000D02*
X103243000Y-96243000D01*
X100225000Y-80906800D02*
X100225000Y-84000000D01*
X102774499Y-95774499D02*
X102774499Y-93021985D01*
X91486800Y-81195000D02*
X93906800Y-78775000D01*
X93481948Y-84495000D02*
X91958294Y-84495000D01*
%TO.N,/Switch/USB_A_D2+*%
X91731087Y-82995000D02*
X92731087Y-82995000D01*
X103225000Y-94950501D02*
X103225000Y-92906800D01*
X102743000Y-97000500D02*
X102743000Y-99060000D01*
X97906800Y-79225000D02*
X99775000Y-81093200D01*
X94813200Y-84495000D02*
X94047634Y-84495000D01*
X92731087Y-82995000D02*
X92731087Y-81195000D01*
X94093200Y-79225000D02*
X97906800Y-79225000D01*
X93147634Y-83595000D02*
X92331087Y-83595000D01*
X102743500Y-97000000D02*
X102743000Y-97000500D01*
X99775000Y-81093200D02*
X99775000Y-84000000D01*
X103225000Y-92906800D02*
X94813200Y-84495000D01*
X92123200Y-81195000D02*
X94093200Y-79225000D01*
X94047634Y-84495000D02*
X93147634Y-83595000D01*
X92331087Y-83595000D02*
X91731087Y-82995000D01*
X92731087Y-81195000D02*
X92123200Y-81195000D01*
X103274499Y-95000000D02*
X103225000Y-94950501D01*
%TO.N,/Switch/USB_A_D1-*%
X101000000Y-93000000D02*
X100000000Y-92000000D01*
X79565686Y-87000000D02*
X79025000Y-86459314D01*
X84458294Y-82995000D02*
X84931087Y-82995000D01*
X84229810Y-86770190D02*
X85106086Y-85893914D01*
X84167547Y-81485747D02*
X83931087Y-81722207D01*
X82840900Y-80159100D02*
X84167547Y-81485747D01*
X81406586Y-80159100D02*
X82840900Y-80159100D01*
X79025000Y-86459314D02*
X79025000Y-82540686D01*
X101000000Y-95516781D02*
X101000000Y-93000000D01*
X84931087Y-82995000D02*
X84331087Y-83595000D01*
X97093199Y-89774999D02*
X96099999Y-89774999D01*
X85106086Y-84369999D02*
X84331087Y-83595000D01*
X83931087Y-81722207D02*
X83931087Y-82467793D01*
X101743000Y-99060000D02*
X101743000Y-96259781D01*
X96099999Y-89774999D02*
X96000000Y-89675000D01*
X82000000Y-87000000D02*
X79565686Y-87000000D01*
X79025000Y-82540686D02*
X81406586Y-80159100D01*
X83931087Y-82467793D02*
X84458294Y-82995000D01*
X85106086Y-85893914D02*
X85106086Y-84369999D01*
X101743000Y-96259781D02*
X101000000Y-95516781D01*
%TO.N,/Switch/USB_A_D1+*%
X85556088Y-82820001D02*
X85556088Y-82642792D01*
X78625000Y-86625000D02*
X79400001Y-87400000D01*
X85556088Y-82642792D02*
X85731087Y-82467793D01*
X84729810Y-86977297D02*
X84729810Y-86906588D01*
X84022703Y-87270190D02*
X84436917Y-87270190D01*
X83770190Y-87229810D02*
X83982323Y-87229810D01*
X86331087Y-83595000D02*
X85556088Y-82820001D01*
X101499500Y-95000000D02*
X101499500Y-92933814D01*
X101243000Y-97000000D02*
X101243000Y-99060000D01*
X84436917Y-87270190D02*
X84729810Y-86977297D01*
X84513200Y-81195000D02*
X83077300Y-79759100D01*
X96099999Y-90225001D02*
X96000000Y-90325000D01*
X85203880Y-81195000D02*
X84513200Y-81195000D01*
X85731087Y-81722207D02*
X85203880Y-81195000D01*
X84729810Y-86906588D02*
X85556088Y-86080310D01*
X81240900Y-79759100D02*
X78625000Y-82375000D01*
X83077300Y-79759100D02*
X81240900Y-79759100D01*
X79400001Y-87400000D02*
X82000000Y-87400000D01*
X85556088Y-84369999D02*
X86331087Y-83595000D01*
X83982323Y-87229810D02*
X84022703Y-87270190D01*
X85731087Y-82467793D02*
X85731087Y-81722207D01*
X78625000Y-82375000D02*
X78625000Y-86625000D01*
X85556088Y-86080310D02*
X85556088Y-84369999D01*
X101499500Y-92933814D02*
X100282843Y-91717157D01*
X96906801Y-90225001D02*
X96099999Y-90225001D01*
%TO.N,/Switch/USB_A_D0-*%
X86011087Y-78775000D02*
X80906800Y-78775000D01*
X92906800Y-93225000D02*
X96840900Y-97159100D01*
X100243000Y-98414999D02*
X100218000Y-98389999D01*
X77775000Y-87093200D02*
X83906800Y-93225000D01*
X89231087Y-83967793D02*
X89231087Y-83222207D01*
X77775000Y-81906800D02*
X77775000Y-87093200D01*
X88717484Y-82708603D02*
X89331087Y-82095000D01*
X100243000Y-99060000D02*
X100243000Y-98414999D01*
X89231087Y-83222207D02*
X88717484Y-82708603D01*
X100218000Y-98389999D02*
X100218000Y-97899800D01*
X88556088Y-86237888D02*
X88556088Y-84642792D01*
X89331087Y-82095000D02*
X86011087Y-78775000D01*
X88556088Y-84642792D02*
X89231087Y-83967793D01*
X100218000Y-97899800D02*
X88556088Y-86237888D01*
X83906800Y-93225000D02*
X92906800Y-93225000D01*
X80906800Y-78775000D02*
X77775000Y-81906800D01*
%TO.N,/Switch/USB_A_D0+*%
X78225000Y-82093200D02*
X78225000Y-86906800D01*
X99768000Y-98389999D02*
X99768000Y-98086200D01*
X87431087Y-83967793D02*
X87431087Y-83222207D01*
X99768000Y-98086200D02*
X88106086Y-86424286D01*
X87944690Y-82708603D02*
X87331087Y-82095000D01*
X99743000Y-99060000D02*
X99743000Y-98414999D01*
X88106086Y-86424286D02*
X88106086Y-84642792D01*
X93093200Y-92775000D02*
X97159100Y-96840900D01*
X99743000Y-98414999D02*
X99768000Y-98389999D01*
X88106086Y-84642792D02*
X87431087Y-83967793D01*
X81093200Y-79225000D02*
X78225000Y-82093200D01*
X87331087Y-80731397D02*
X85824690Y-79225000D01*
X78225000Y-86906800D02*
X84093200Y-92775000D01*
X87431087Y-83222207D02*
X87944690Y-82708603D01*
X85824690Y-79225000D02*
X81093200Y-79225000D01*
X87331087Y-82095000D02*
X87331087Y-80731397D01*
X84093200Y-92775000D02*
X93093200Y-92775000D01*
D26*
%TO.N,Net-(D1-A)*%
X131000000Y-97000000D02*
X135167500Y-97000000D01*
%TO.N,/+5V*%
X129175000Y-97000000D02*
X127397000Y-97000000D01*
%TO.N,/S0*%
X128245000Y-114300000D02*
X128805000Y-113740000D01*
X128805000Y-113740000D02*
X137492500Y-113740000D01*
%TO.N,/S1*%
X129085000Y-118540000D02*
X137492500Y-118540000D01*
X128245000Y-119380000D02*
X129085000Y-118540000D01*
%TO.N,/CLOCK*%
X128245000Y-124460000D02*
X129365000Y-123340000D01*
X129365000Y-123340000D02*
X137492500Y-123340000D01*
%TD*%
M02*
