%TF.GenerationSoftware,KiCad,Pcbnew,7.0.2*%
%TF.CreationDate,2023-08-08T23:25:05-03:00*%
%TF.ProjectId,USB Switch,55534220-5377-4697-9463-682e6b696361,rev?*%
%TF.SameCoordinates,Original*%
%TF.FileFunction,Paste,Top*%
%TF.FilePolarity,Positive*%
%FSLAX46Y46*%
G04 Gerber Fmt 4.6, Leading zero omitted, Abs format (unit mm)*
G04 Created by KiCad (PCBNEW 7.0.2) date 2023-08-08 23:25:05*
%MOMM*%
%LPD*%
G01*
G04 APERTURE LIST*
G04 Aperture macros list*
%AMRoundRect*
0 Rectangle with rounded corners*
0 $1 Rounding radius*
0 $2 $3 $4 $5 $6 $7 $8 $9 X,Y pos of 4 corners*
0 Add a 4 corners polygon primitive as box body*
4,1,4,$2,$3,$4,$5,$6,$7,$8,$9,$2,$3,0*
0 Add four circle primitives for the rounded corners*
1,1,$1+$1,$2,$3*
1,1,$1+$1,$4,$5*
1,1,$1+$1,$6,$7*
1,1,$1+$1,$8,$9*
0 Add four rect primitives between the rounded corners*
20,1,$1+$1,$2,$3,$4,$5,0*
20,1,$1+$1,$4,$5,$6,$7,0*
20,1,$1+$1,$6,$7,$8,$9,0*
20,1,$1+$1,$8,$9,$2,$3,0*%
G04 Aperture macros list end*
%ADD10C,0.010000*%
%ADD11RoundRect,0.250000X0.262500X0.450000X-0.262500X0.450000X-0.262500X-0.450000X0.262500X-0.450000X0*%
%ADD12RoundRect,0.250000X-0.262500X-0.450000X0.262500X-0.450000X0.262500X0.450000X-0.262500X0.450000X0*%
%ADD13RoundRect,0.008100X-0.421900X-0.126900X0.421900X-0.126900X0.421900X0.126900X-0.421900X0.126900X0*%
%ADD14RoundRect,0.008100X0.126900X-0.421900X0.126900X0.421900X-0.126900X0.421900X-0.126900X-0.421900X0*%
%ADD15RoundRect,0.243750X0.243750X0.456250X-0.243750X0.456250X-0.243750X-0.456250X0.243750X-0.456250X0*%
G04 APERTURE END LIST*
%TO.C,S1*%
D10*
X78653000Y-115280000D02*
X77013000Y-115280000D01*
X77013000Y-113860000D01*
X78653000Y-113860000D01*
X78653000Y-115280000D01*
G36*
X78653000Y-115280000D02*
G01*
X77013000Y-115280000D01*
X77013000Y-113860000D01*
X78653000Y-113860000D01*
X78653000Y-115280000D01*
G37*
X78653000Y-117530000D02*
X77013000Y-117530000D01*
X77013000Y-116110000D01*
X78653000Y-116110000D01*
X78653000Y-117530000D01*
G36*
X78653000Y-117530000D02*
G01*
X77013000Y-117530000D01*
X77013000Y-116110000D01*
X78653000Y-116110000D01*
X78653000Y-117530000D01*
G37*
X81253000Y-115280000D02*
X79613000Y-115280000D01*
X79613000Y-113860000D01*
X81253000Y-113860000D01*
X81253000Y-115280000D01*
G36*
X81253000Y-115280000D02*
G01*
X79613000Y-115280000D01*
X79613000Y-113860000D01*
X81253000Y-113860000D01*
X81253000Y-115280000D01*
G37*
X81253000Y-117530000D02*
X79613000Y-117530000D01*
X79613000Y-116110000D01*
X81253000Y-116110000D01*
X81253000Y-117530000D01*
G36*
X81253000Y-117530000D02*
G01*
X79613000Y-117530000D01*
X79613000Y-116110000D01*
X81253000Y-116110000D01*
X81253000Y-117530000D01*
G37*
%TO.C,S2*%
X101513000Y-102580000D02*
X99873000Y-102580000D01*
X99873000Y-101160000D01*
X101513000Y-101160000D01*
X101513000Y-102580000D01*
G36*
X101513000Y-102580000D02*
G01*
X99873000Y-102580000D01*
X99873000Y-101160000D01*
X101513000Y-101160000D01*
X101513000Y-102580000D01*
G37*
X101513000Y-104830000D02*
X99873000Y-104830000D01*
X99873000Y-103410000D01*
X101513000Y-103410000D01*
X101513000Y-104830000D01*
G36*
X101513000Y-104830000D02*
G01*
X99873000Y-104830000D01*
X99873000Y-103410000D01*
X101513000Y-103410000D01*
X101513000Y-104830000D01*
G37*
X104113000Y-102580000D02*
X102473000Y-102580000D01*
X102473000Y-101160000D01*
X104113000Y-101160000D01*
X104113000Y-102580000D01*
G36*
X104113000Y-102580000D02*
G01*
X102473000Y-102580000D01*
X102473000Y-101160000D01*
X104113000Y-101160000D01*
X104113000Y-102580000D01*
G37*
X104113000Y-104830000D02*
X102473000Y-104830000D01*
X102473000Y-103410000D01*
X104113000Y-103410000D01*
X104113000Y-104830000D01*
G36*
X104113000Y-104830000D02*
G01*
X102473000Y-104830000D01*
X102473000Y-103410000D01*
X104113000Y-103410000D01*
X104113000Y-104830000D01*
G37*
%TD*%
D11*
%TO.C,R3*%
X128245000Y-119380000D03*
X126420000Y-119380000D03*
%TD*%
D12*
%TO.C,R1*%
X129175000Y-97000000D03*
X131000000Y-97000000D03*
%TD*%
D13*
%TO.C,S1*%
X75198000Y-112445000D03*
X75198000Y-112945000D03*
X75198000Y-113445000D03*
X75198000Y-113945000D03*
X75198000Y-114445000D03*
X75198000Y-114945000D03*
X75198000Y-115445000D03*
X75198000Y-115945000D03*
X75198000Y-116445000D03*
X75198000Y-116945000D03*
X75198000Y-117445000D03*
X75198000Y-117945000D03*
X75198000Y-118445000D03*
X75198000Y-118945000D03*
D14*
X75883000Y-119630000D03*
X76383000Y-119630000D03*
X76883000Y-119630000D03*
X77383000Y-119630000D03*
X77883000Y-119630000D03*
X78383000Y-119630000D03*
X78883000Y-119630000D03*
X79383000Y-119630000D03*
X79883000Y-119630000D03*
X80383000Y-119630000D03*
X80883000Y-119630000D03*
X81383000Y-119630000D03*
X81883000Y-119630000D03*
X82383000Y-119630000D03*
D13*
X83068000Y-118945000D03*
X83068000Y-118445000D03*
X83068000Y-117945000D03*
X83068000Y-117445000D03*
X83068000Y-116945000D03*
X83068000Y-116445000D03*
X83068000Y-115945000D03*
X83068000Y-115445000D03*
X83068000Y-114945000D03*
X83068000Y-114445000D03*
X83068000Y-113945000D03*
X83068000Y-113445000D03*
X83068000Y-112945000D03*
X83068000Y-112445000D03*
D14*
X82383000Y-111760000D03*
X81883000Y-111760000D03*
X81383000Y-111760000D03*
X80883000Y-111760000D03*
X80383000Y-111760000D03*
X79883000Y-111760000D03*
X79383000Y-111760000D03*
X78883000Y-111760000D03*
X78383000Y-111760000D03*
X77883000Y-111760000D03*
X77383000Y-111760000D03*
X76883000Y-111760000D03*
X76383000Y-111760000D03*
X75883000Y-111760000D03*
%TD*%
D11*
%TO.C,R4*%
X128245000Y-124460000D03*
X126420000Y-124460000D03*
%TD*%
D13*
%TO.C,S2*%
X98058000Y-99745000D03*
X98058000Y-100245000D03*
X98058000Y-100745000D03*
X98058000Y-101245000D03*
X98058000Y-101745000D03*
X98058000Y-102245000D03*
X98058000Y-102745000D03*
X98058000Y-103245000D03*
X98058000Y-103745000D03*
X98058000Y-104245000D03*
X98058000Y-104745000D03*
X98058000Y-105245000D03*
X98058000Y-105745000D03*
X98058000Y-106245000D03*
D14*
X98743000Y-106930000D03*
X99243000Y-106930000D03*
X99743000Y-106930000D03*
X100243000Y-106930000D03*
X100743000Y-106930000D03*
X101243000Y-106930000D03*
X101743000Y-106930000D03*
X102243000Y-106930000D03*
X102743000Y-106930000D03*
X103243000Y-106930000D03*
X103743000Y-106930000D03*
X104243000Y-106930000D03*
X104743000Y-106930000D03*
X105243000Y-106930000D03*
D13*
X105928000Y-106245000D03*
X105928000Y-105745000D03*
X105928000Y-105245000D03*
X105928000Y-104745000D03*
X105928000Y-104245000D03*
X105928000Y-103745000D03*
X105928000Y-103245000D03*
X105928000Y-102745000D03*
X105928000Y-102245000D03*
X105928000Y-101745000D03*
X105928000Y-101245000D03*
X105928000Y-100745000D03*
X105928000Y-100245000D03*
X105928000Y-99745000D03*
D14*
X105243000Y-99060000D03*
X104743000Y-99060000D03*
X104243000Y-99060000D03*
X103743000Y-99060000D03*
X103243000Y-99060000D03*
X102743000Y-99060000D03*
X102243000Y-99060000D03*
X101743000Y-99060000D03*
X101243000Y-99060000D03*
X100743000Y-99060000D03*
X100243000Y-99060000D03*
X99743000Y-99060000D03*
X99243000Y-99060000D03*
X98743000Y-99060000D03*
%TD*%
D15*
%TO.C,D1*%
X137042500Y-97000000D03*
X135167500Y-97000000D03*
%TD*%
D11*
%TO.C,R2*%
X128245000Y-114300000D03*
X126420000Y-114300000D03*
%TD*%
M02*
