M48
; DRILL file {KiCad 7.0.2} date Tue Aug  8 23:25:11 2023
; FORMAT={-:-/ absolute / inch / decimal}
; #@! TF.CreationDate,2023-08-08T23:25:11-03:00
; #@! TF.GenerationSoftware,Kicad,Pcbnew,7.0.2
; #@! TF.FileFunction,Plated,1,4,PTH
FMAT,2
INCH
; #@! TA.AperFunction,Plated,PTH,ViaDrill
T1C0.0079
; #@! TA.AperFunction,Plated,PTH,ComponentDrill
T2C0.0197
; #@! TA.AperFunction,Plated,PTH,ComponentDrill
T3C0.0276
; #@! TA.AperFunction,Plated,PTH,ComponentDrill
T4C0.0433
; #@! TA.AperFunction,Plated,PTH,ComponentDrill
T5C0.0598
; #@! TA.AperFunction,Plated,PTH,ComponentDrill
T6C0.0709
; #@! TA.AperFunction,Plated,PTH,ComponentDrill
T7C0.1260
%
G90
G05
T1
X2.7862Y-4.4972
X2.8043Y-4.4791
X3.298Y-3.4342
X3.3161Y-3.4161
X3.7795Y-3.5305
X3.7795Y-3.5561
X3.9859Y-3.8189
X3.996Y-3.7402
X4.045Y-3.8189
X4.0659Y-3.7402
X4.3307Y-3.8848
X4.3307Y-3.9104
X4.3307Y-4.0372
X4.5337Y-3.759
X4.5669Y-3.7795
X4.6366Y-4.4398
X4.6547Y-4.4579
X4.7547Y-3.4736
X4.7728Y-3.4555
T2
X1.9887Y-5.1168
X2.0164Y-5.05
X2.0164Y-5.1836
X2.0223Y-3.5945
X2.05Y-3.5277
X2.05Y-3.6613
X2.0832Y-5.0223
X2.0832Y-5.2113
X2.1168Y-3.5
X2.1168Y-3.689
X2.15Y-5.05
X2.15Y-5.1836
X2.1777Y-5.1168
X2.1836Y-3.5277
X2.1836Y-3.6613
X2.2113Y-3.5945
X5.5055Y-3.5945
X5.5332Y-3.5277
X5.5332Y-3.6613
X5.5387Y-5.1
X5.5664Y-5.0332
X5.5664Y-5.1668
X5.6Y-3.5
X5.6Y-3.689
X5.6332Y-5.0055
X5.6332Y-5.1945
X5.6668Y-3.5277
X5.6668Y-3.6613
X5.6945Y-3.5945
X5.7Y-5.0332
X5.7Y-5.1668
X5.7277Y-5.1
T3
X2.3182Y-3.2911
X2.3378Y-3.2321
X2.3969Y-3.2911
X2.4363Y-3.2321
X2.4756Y-3.2911
X2.515Y-3.2321
X2.5544Y-3.2911
X2.6134Y-3.2321
X2.6331Y-3.2911
X3.3201Y-3.2911
X3.3398Y-3.2321
X3.3989Y-3.2911
X3.4382Y-3.2321
X3.4776Y-3.2911
X3.517Y-3.2321
X3.5563Y-3.2911
X3.6154Y-3.2321
X3.6351Y-3.2911
X4.1951Y-3.2911
X4.2148Y-3.2321
X4.2739Y-3.2911
X4.3132Y-3.2321
X4.3526Y-3.2911
X4.392Y-3.2321
X4.4313Y-3.2911
X4.4904Y-3.2321
X4.5101Y-3.2911
X5.0701Y-3.2911
X5.0898Y-3.2321
X5.1489Y-3.2911
X5.1882Y-3.2321
X5.2276Y-3.2911
X5.267Y-3.2321
X5.3063Y-3.2911
X5.3654Y-3.2321
X5.3851Y-3.2911
T4
X5.4131Y-4.1
X5.4131Y-4.289
X5.4131Y-4.478
X5.4131Y-4.6669
X5.4131Y-4.8559
T5
X2.2237Y-2.927
X2.7276Y-2.927
X3.2256Y-2.927
X3.7296Y-2.927
X4.1006Y-2.927
X4.6046Y-2.927
X4.9756Y-2.927
X5.4796Y-2.927
T6
X2.2237Y-3.2616
X2.7276Y-3.2616
X3.2256Y-3.2616
X3.7296Y-3.2616
X4.1006Y-3.2616
X4.6046Y-3.2616
X4.9756Y-3.2616
X5.4796Y-3.2616
T7
X2.0832Y-5.1168
X2.1168Y-3.5945
X5.6Y-3.5945
X5.6332Y-5.1
T0
M30
