%TF.GenerationSoftware,KiCad,Pcbnew,7.0.2*%
%TF.CreationDate,2023-08-06T23:13:36-03:00*%
%TF.ProjectId,KVM Project,4b564d20-5072-46f6-9a65-63742e6b6963,rev?*%
%TF.SameCoordinates,Original*%
%TF.FileFunction,Legend,Top*%
%TF.FilePolarity,Positive*%
%FSLAX46Y46*%
G04 Gerber Fmt 4.6, Leading zero omitted, Abs format (unit mm)*
G04 Created by KiCad (PCBNEW 7.0.2) date 2023-08-06 23:13:36*
%MOMM*%
%LPD*%
G01*
G04 APERTURE LIST*
%ADD10C,0.150000*%
%ADD11C,0.254000*%
%ADD12C,0.120000*%
%ADD13C,0.100000*%
%ADD14C,0.200000*%
%ADD15C,0.127000*%
G04 APERTURE END LIST*
D10*
%TO.C,PWR1*%
X170910476Y-84492619D02*
X170910476Y-83492619D01*
X170910476Y-83492619D02*
X171291428Y-83492619D01*
X171291428Y-83492619D02*
X171386666Y-83540238D01*
X171386666Y-83540238D02*
X171434285Y-83587857D01*
X171434285Y-83587857D02*
X171481904Y-83683095D01*
X171481904Y-83683095D02*
X171481904Y-83825952D01*
X171481904Y-83825952D02*
X171434285Y-83921190D01*
X171434285Y-83921190D02*
X171386666Y-83968809D01*
X171386666Y-83968809D02*
X171291428Y-84016428D01*
X171291428Y-84016428D02*
X170910476Y-84016428D01*
X171815238Y-83492619D02*
X172053333Y-84492619D01*
X172053333Y-84492619D02*
X172243809Y-83778333D01*
X172243809Y-83778333D02*
X172434285Y-84492619D01*
X172434285Y-84492619D02*
X172672381Y-83492619D01*
X173624761Y-84492619D02*
X173291428Y-84016428D01*
X173053333Y-84492619D02*
X173053333Y-83492619D01*
X173053333Y-83492619D02*
X173434285Y-83492619D01*
X173434285Y-83492619D02*
X173529523Y-83540238D01*
X173529523Y-83540238D02*
X173577142Y-83587857D01*
X173577142Y-83587857D02*
X173624761Y-83683095D01*
X173624761Y-83683095D02*
X173624761Y-83825952D01*
X173624761Y-83825952D02*
X173577142Y-83921190D01*
X173577142Y-83921190D02*
X173529523Y-83968809D01*
X173529523Y-83968809D02*
X173434285Y-84016428D01*
X173434285Y-84016428D02*
X173053333Y-84016428D01*
X174577142Y-84492619D02*
X174005714Y-84492619D01*
X174291428Y-84492619D02*
X174291428Y-83492619D01*
X174291428Y-83492619D02*
X174196190Y-83635476D01*
X174196190Y-83635476D02*
X174100952Y-83730714D01*
X174100952Y-83730714D02*
X174005714Y-83778333D01*
%TO.C,PWR2*%
X171510476Y-65192619D02*
X171510476Y-64192619D01*
X171510476Y-64192619D02*
X171891428Y-64192619D01*
X171891428Y-64192619D02*
X171986666Y-64240238D01*
X171986666Y-64240238D02*
X172034285Y-64287857D01*
X172034285Y-64287857D02*
X172081904Y-64383095D01*
X172081904Y-64383095D02*
X172081904Y-64525952D01*
X172081904Y-64525952D02*
X172034285Y-64621190D01*
X172034285Y-64621190D02*
X171986666Y-64668809D01*
X171986666Y-64668809D02*
X171891428Y-64716428D01*
X171891428Y-64716428D02*
X171510476Y-64716428D01*
X172415238Y-64192619D02*
X172653333Y-65192619D01*
X172653333Y-65192619D02*
X172843809Y-64478333D01*
X172843809Y-64478333D02*
X173034285Y-65192619D01*
X173034285Y-65192619D02*
X173272381Y-64192619D01*
X174224761Y-65192619D02*
X173891428Y-64716428D01*
X173653333Y-65192619D02*
X173653333Y-64192619D01*
X173653333Y-64192619D02*
X174034285Y-64192619D01*
X174034285Y-64192619D02*
X174129523Y-64240238D01*
X174129523Y-64240238D02*
X174177142Y-64287857D01*
X174177142Y-64287857D02*
X174224761Y-64383095D01*
X174224761Y-64383095D02*
X174224761Y-64525952D01*
X174224761Y-64525952D02*
X174177142Y-64621190D01*
X174177142Y-64621190D02*
X174129523Y-64668809D01*
X174129523Y-64668809D02*
X174034285Y-64716428D01*
X174034285Y-64716428D02*
X173653333Y-64716428D01*
X174605714Y-64287857D02*
X174653333Y-64240238D01*
X174653333Y-64240238D02*
X174748571Y-64192619D01*
X174748571Y-64192619D02*
X174986666Y-64192619D01*
X174986666Y-64192619D02*
X175081904Y-64240238D01*
X175081904Y-64240238D02*
X175129523Y-64287857D01*
X175129523Y-64287857D02*
X175177142Y-64383095D01*
X175177142Y-64383095D02*
X175177142Y-64478333D01*
X175177142Y-64478333D02*
X175129523Y-64621190D01*
X175129523Y-64621190D02*
X174558095Y-65192619D01*
X174558095Y-65192619D02*
X175177142Y-65192619D01*
%TO.C,D1*%
X160306905Y-67392619D02*
X160306905Y-66392619D01*
X160306905Y-66392619D02*
X160545000Y-66392619D01*
X160545000Y-66392619D02*
X160687857Y-66440238D01*
X160687857Y-66440238D02*
X160783095Y-66535476D01*
X160783095Y-66535476D02*
X160830714Y-66630714D01*
X160830714Y-66630714D02*
X160878333Y-66821190D01*
X160878333Y-66821190D02*
X160878333Y-66964047D01*
X160878333Y-66964047D02*
X160830714Y-67154523D01*
X160830714Y-67154523D02*
X160783095Y-67249761D01*
X160783095Y-67249761D02*
X160687857Y-67345000D01*
X160687857Y-67345000D02*
X160545000Y-67392619D01*
X160545000Y-67392619D02*
X160306905Y-67392619D01*
X161830714Y-67392619D02*
X161259286Y-67392619D01*
X161545000Y-67392619D02*
X161545000Y-66392619D01*
X161545000Y-66392619D02*
X161449762Y-66535476D01*
X161449762Y-66535476D02*
X161354524Y-66630714D01*
X161354524Y-66630714D02*
X161259286Y-66678333D01*
D11*
%TO.C,DP_IN1*%
X88416190Y-57727526D02*
X88416190Y-56457526D01*
X88416190Y-56457526D02*
X88718571Y-56457526D01*
X88718571Y-56457526D02*
X88900000Y-56518002D01*
X88900000Y-56518002D02*
X89020952Y-56638954D01*
X89020952Y-56638954D02*
X89081429Y-56759907D01*
X89081429Y-56759907D02*
X89141905Y-57001811D01*
X89141905Y-57001811D02*
X89141905Y-57183240D01*
X89141905Y-57183240D02*
X89081429Y-57425145D01*
X89081429Y-57425145D02*
X89020952Y-57546097D01*
X89020952Y-57546097D02*
X88900000Y-57667050D01*
X88900000Y-57667050D02*
X88718571Y-57727526D01*
X88718571Y-57727526D02*
X88416190Y-57727526D01*
X89686190Y-57727526D02*
X89686190Y-56457526D01*
X89686190Y-56457526D02*
X90170000Y-56457526D01*
X90170000Y-56457526D02*
X90290952Y-56518002D01*
X90290952Y-56518002D02*
X90351429Y-56578478D01*
X90351429Y-56578478D02*
X90411905Y-56699430D01*
X90411905Y-56699430D02*
X90411905Y-56880859D01*
X90411905Y-56880859D02*
X90351429Y-57001811D01*
X90351429Y-57001811D02*
X90290952Y-57062288D01*
X90290952Y-57062288D02*
X90170000Y-57122764D01*
X90170000Y-57122764D02*
X89686190Y-57122764D01*
X90653810Y-57848478D02*
X91621429Y-57848478D01*
X91923809Y-57727526D02*
X91923809Y-56457526D01*
X92528571Y-57727526D02*
X92528571Y-56457526D01*
X92528571Y-56457526D02*
X93254286Y-57727526D01*
X93254286Y-57727526D02*
X93254286Y-56457526D01*
X94524286Y-57727526D02*
X93798571Y-57727526D01*
X94161428Y-57727526D02*
X94161428Y-56457526D01*
X94161428Y-56457526D02*
X94040476Y-56638954D01*
X94040476Y-56638954D02*
X93919524Y-56759907D01*
X93919524Y-56759907D02*
X93798571Y-56820383D01*
%TO.C,DP_IN3*%
X144296190Y-57727526D02*
X144296190Y-56457526D01*
X144296190Y-56457526D02*
X144598571Y-56457526D01*
X144598571Y-56457526D02*
X144780000Y-56518002D01*
X144780000Y-56518002D02*
X144900952Y-56638954D01*
X144900952Y-56638954D02*
X144961429Y-56759907D01*
X144961429Y-56759907D02*
X145021905Y-57001811D01*
X145021905Y-57001811D02*
X145021905Y-57183240D01*
X145021905Y-57183240D02*
X144961429Y-57425145D01*
X144961429Y-57425145D02*
X144900952Y-57546097D01*
X144900952Y-57546097D02*
X144780000Y-57667050D01*
X144780000Y-57667050D02*
X144598571Y-57727526D01*
X144598571Y-57727526D02*
X144296190Y-57727526D01*
X145566190Y-57727526D02*
X145566190Y-56457526D01*
X145566190Y-56457526D02*
X146050000Y-56457526D01*
X146050000Y-56457526D02*
X146170952Y-56518002D01*
X146170952Y-56518002D02*
X146231429Y-56578478D01*
X146231429Y-56578478D02*
X146291905Y-56699430D01*
X146291905Y-56699430D02*
X146291905Y-56880859D01*
X146291905Y-56880859D02*
X146231429Y-57001811D01*
X146231429Y-57001811D02*
X146170952Y-57062288D01*
X146170952Y-57062288D02*
X146050000Y-57122764D01*
X146050000Y-57122764D02*
X145566190Y-57122764D01*
X146533810Y-57848478D02*
X147501429Y-57848478D01*
X147803809Y-57727526D02*
X147803809Y-56457526D01*
X148408571Y-57727526D02*
X148408571Y-56457526D01*
X148408571Y-56457526D02*
X149134286Y-57727526D01*
X149134286Y-57727526D02*
X149134286Y-56457526D01*
X149618095Y-56457526D02*
X150404286Y-56457526D01*
X150404286Y-56457526D02*
X149980952Y-56941335D01*
X149980952Y-56941335D02*
X150162381Y-56941335D01*
X150162381Y-56941335D02*
X150283333Y-57001811D01*
X150283333Y-57001811D02*
X150343809Y-57062288D01*
X150343809Y-57062288D02*
X150404286Y-57183240D01*
X150404286Y-57183240D02*
X150404286Y-57485621D01*
X150404286Y-57485621D02*
X150343809Y-57606573D01*
X150343809Y-57606573D02*
X150283333Y-57667050D01*
X150283333Y-57667050D02*
X150162381Y-57727526D01*
X150162381Y-57727526D02*
X149799524Y-57727526D01*
X149799524Y-57727526D02*
X149678571Y-57667050D01*
X149678571Y-57667050D02*
X149618095Y-57606573D01*
D10*
%TO.C,U6*%
X175108095Y-68622619D02*
X175108095Y-69432142D01*
X175108095Y-69432142D02*
X175155714Y-69527380D01*
X175155714Y-69527380D02*
X175203333Y-69575000D01*
X175203333Y-69575000D02*
X175298571Y-69622619D01*
X175298571Y-69622619D02*
X175489047Y-69622619D01*
X175489047Y-69622619D02*
X175584285Y-69575000D01*
X175584285Y-69575000D02*
X175631904Y-69527380D01*
X175631904Y-69527380D02*
X175679523Y-69432142D01*
X175679523Y-69432142D02*
X175679523Y-68622619D01*
X176584285Y-68622619D02*
X176393809Y-68622619D01*
X176393809Y-68622619D02*
X176298571Y-68670238D01*
X176298571Y-68670238D02*
X176250952Y-68717857D01*
X176250952Y-68717857D02*
X176155714Y-68860714D01*
X176155714Y-68860714D02*
X176108095Y-69051190D01*
X176108095Y-69051190D02*
X176108095Y-69432142D01*
X176108095Y-69432142D02*
X176155714Y-69527380D01*
X176155714Y-69527380D02*
X176203333Y-69575000D01*
X176203333Y-69575000D02*
X176298571Y-69622619D01*
X176298571Y-69622619D02*
X176489047Y-69622619D01*
X176489047Y-69622619D02*
X176584285Y-69575000D01*
X176584285Y-69575000D02*
X176631904Y-69527380D01*
X176631904Y-69527380D02*
X176679523Y-69432142D01*
X176679523Y-69432142D02*
X176679523Y-69194047D01*
X176679523Y-69194047D02*
X176631904Y-69098809D01*
X176631904Y-69098809D02*
X176584285Y-69051190D01*
X176584285Y-69051190D02*
X176489047Y-69003571D01*
X176489047Y-69003571D02*
X176298571Y-69003571D01*
X176298571Y-69003571D02*
X176203333Y-69051190D01*
X176203333Y-69051190D02*
X176155714Y-69098809D01*
X176155714Y-69098809D02*
X176108095Y-69194047D01*
D11*
%TO.C,DP_IN2*%
X116356190Y-57727526D02*
X116356190Y-56457526D01*
X116356190Y-56457526D02*
X116658571Y-56457526D01*
X116658571Y-56457526D02*
X116840000Y-56518002D01*
X116840000Y-56518002D02*
X116960952Y-56638954D01*
X116960952Y-56638954D02*
X117021429Y-56759907D01*
X117021429Y-56759907D02*
X117081905Y-57001811D01*
X117081905Y-57001811D02*
X117081905Y-57183240D01*
X117081905Y-57183240D02*
X117021429Y-57425145D01*
X117021429Y-57425145D02*
X116960952Y-57546097D01*
X116960952Y-57546097D02*
X116840000Y-57667050D01*
X116840000Y-57667050D02*
X116658571Y-57727526D01*
X116658571Y-57727526D02*
X116356190Y-57727526D01*
X117626190Y-57727526D02*
X117626190Y-56457526D01*
X117626190Y-56457526D02*
X118110000Y-56457526D01*
X118110000Y-56457526D02*
X118230952Y-56518002D01*
X118230952Y-56518002D02*
X118291429Y-56578478D01*
X118291429Y-56578478D02*
X118351905Y-56699430D01*
X118351905Y-56699430D02*
X118351905Y-56880859D01*
X118351905Y-56880859D02*
X118291429Y-57001811D01*
X118291429Y-57001811D02*
X118230952Y-57062288D01*
X118230952Y-57062288D02*
X118110000Y-57122764D01*
X118110000Y-57122764D02*
X117626190Y-57122764D01*
X118593810Y-57848478D02*
X119561429Y-57848478D01*
X119863809Y-57727526D02*
X119863809Y-56457526D01*
X120468571Y-57727526D02*
X120468571Y-56457526D01*
X120468571Y-56457526D02*
X121194286Y-57727526D01*
X121194286Y-57727526D02*
X121194286Y-56457526D01*
X121738571Y-56578478D02*
X121799047Y-56518002D01*
X121799047Y-56518002D02*
X121920000Y-56457526D01*
X121920000Y-56457526D02*
X122222381Y-56457526D01*
X122222381Y-56457526D02*
X122343333Y-56518002D01*
X122343333Y-56518002D02*
X122403809Y-56578478D01*
X122403809Y-56578478D02*
X122464286Y-56699430D01*
X122464286Y-56699430D02*
X122464286Y-56820383D01*
X122464286Y-56820383D02*
X122403809Y-57001811D01*
X122403809Y-57001811D02*
X121678095Y-57727526D01*
X121678095Y-57727526D02*
X122464286Y-57727526D01*
%TO.C,DP_OUT1*%
X54549523Y-57727526D02*
X54549523Y-56457526D01*
X54549523Y-56457526D02*
X54851904Y-56457526D01*
X54851904Y-56457526D02*
X55033333Y-56518002D01*
X55033333Y-56518002D02*
X55154285Y-56638954D01*
X55154285Y-56638954D02*
X55214762Y-56759907D01*
X55214762Y-56759907D02*
X55275238Y-57001811D01*
X55275238Y-57001811D02*
X55275238Y-57183240D01*
X55275238Y-57183240D02*
X55214762Y-57425145D01*
X55214762Y-57425145D02*
X55154285Y-57546097D01*
X55154285Y-57546097D02*
X55033333Y-57667050D01*
X55033333Y-57667050D02*
X54851904Y-57727526D01*
X54851904Y-57727526D02*
X54549523Y-57727526D01*
X55819523Y-57727526D02*
X55819523Y-56457526D01*
X55819523Y-56457526D02*
X56303333Y-56457526D01*
X56303333Y-56457526D02*
X56424285Y-56518002D01*
X56424285Y-56518002D02*
X56484762Y-56578478D01*
X56484762Y-56578478D02*
X56545238Y-56699430D01*
X56545238Y-56699430D02*
X56545238Y-56880859D01*
X56545238Y-56880859D02*
X56484762Y-57001811D01*
X56484762Y-57001811D02*
X56424285Y-57062288D01*
X56424285Y-57062288D02*
X56303333Y-57122764D01*
X56303333Y-57122764D02*
X55819523Y-57122764D01*
X56787143Y-57848478D02*
X57754762Y-57848478D01*
X58299047Y-56457526D02*
X58540952Y-56457526D01*
X58540952Y-56457526D02*
X58661904Y-56518002D01*
X58661904Y-56518002D02*
X58782857Y-56638954D01*
X58782857Y-56638954D02*
X58843333Y-56880859D01*
X58843333Y-56880859D02*
X58843333Y-57304192D01*
X58843333Y-57304192D02*
X58782857Y-57546097D01*
X58782857Y-57546097D02*
X58661904Y-57667050D01*
X58661904Y-57667050D02*
X58540952Y-57727526D01*
X58540952Y-57727526D02*
X58299047Y-57727526D01*
X58299047Y-57727526D02*
X58178095Y-57667050D01*
X58178095Y-57667050D02*
X58057142Y-57546097D01*
X58057142Y-57546097D02*
X57996666Y-57304192D01*
X57996666Y-57304192D02*
X57996666Y-56880859D01*
X57996666Y-56880859D02*
X58057142Y-56638954D01*
X58057142Y-56638954D02*
X58178095Y-56518002D01*
X58178095Y-56518002D02*
X58299047Y-56457526D01*
X59387618Y-56457526D02*
X59387618Y-57485621D01*
X59387618Y-57485621D02*
X59448095Y-57606573D01*
X59448095Y-57606573D02*
X59508571Y-57667050D01*
X59508571Y-57667050D02*
X59629523Y-57727526D01*
X59629523Y-57727526D02*
X59871428Y-57727526D01*
X59871428Y-57727526D02*
X59992380Y-57667050D01*
X59992380Y-57667050D02*
X60052857Y-57606573D01*
X60052857Y-57606573D02*
X60113333Y-57485621D01*
X60113333Y-57485621D02*
X60113333Y-56457526D01*
X60536666Y-56457526D02*
X61262380Y-56457526D01*
X60899523Y-57727526D02*
X60899523Y-56457526D01*
X62350952Y-57727526D02*
X61625237Y-57727526D01*
X61988094Y-57727526D02*
X61988094Y-56457526D01*
X61988094Y-56457526D02*
X61867142Y-56638954D01*
X61867142Y-56638954D02*
X61746190Y-56759907D01*
X61746190Y-56759907D02*
X61625237Y-56820383D01*
D10*
%TO.C,USB_OUT1*%
X199652381Y-68042619D02*
X199652381Y-68852142D01*
X199652381Y-68852142D02*
X199700000Y-68947380D01*
X199700000Y-68947380D02*
X199747619Y-68995000D01*
X199747619Y-68995000D02*
X199842857Y-69042619D01*
X199842857Y-69042619D02*
X200033333Y-69042619D01*
X200033333Y-69042619D02*
X200128571Y-68995000D01*
X200128571Y-68995000D02*
X200176190Y-68947380D01*
X200176190Y-68947380D02*
X200223809Y-68852142D01*
X200223809Y-68852142D02*
X200223809Y-68042619D01*
X200652381Y-68995000D02*
X200795238Y-69042619D01*
X200795238Y-69042619D02*
X201033333Y-69042619D01*
X201033333Y-69042619D02*
X201128571Y-68995000D01*
X201128571Y-68995000D02*
X201176190Y-68947380D01*
X201176190Y-68947380D02*
X201223809Y-68852142D01*
X201223809Y-68852142D02*
X201223809Y-68756904D01*
X201223809Y-68756904D02*
X201176190Y-68661666D01*
X201176190Y-68661666D02*
X201128571Y-68614047D01*
X201128571Y-68614047D02*
X201033333Y-68566428D01*
X201033333Y-68566428D02*
X200842857Y-68518809D01*
X200842857Y-68518809D02*
X200747619Y-68471190D01*
X200747619Y-68471190D02*
X200700000Y-68423571D01*
X200700000Y-68423571D02*
X200652381Y-68328333D01*
X200652381Y-68328333D02*
X200652381Y-68233095D01*
X200652381Y-68233095D02*
X200700000Y-68137857D01*
X200700000Y-68137857D02*
X200747619Y-68090238D01*
X200747619Y-68090238D02*
X200842857Y-68042619D01*
X200842857Y-68042619D02*
X201080952Y-68042619D01*
X201080952Y-68042619D02*
X201223809Y-68090238D01*
X201985714Y-68518809D02*
X202128571Y-68566428D01*
X202128571Y-68566428D02*
X202176190Y-68614047D01*
X202176190Y-68614047D02*
X202223809Y-68709285D01*
X202223809Y-68709285D02*
X202223809Y-68852142D01*
X202223809Y-68852142D02*
X202176190Y-68947380D01*
X202176190Y-68947380D02*
X202128571Y-68995000D01*
X202128571Y-68995000D02*
X202033333Y-69042619D01*
X202033333Y-69042619D02*
X201652381Y-69042619D01*
X201652381Y-69042619D02*
X201652381Y-68042619D01*
X201652381Y-68042619D02*
X201985714Y-68042619D01*
X201985714Y-68042619D02*
X202080952Y-68090238D01*
X202080952Y-68090238D02*
X202128571Y-68137857D01*
X202128571Y-68137857D02*
X202176190Y-68233095D01*
X202176190Y-68233095D02*
X202176190Y-68328333D01*
X202176190Y-68328333D02*
X202128571Y-68423571D01*
X202128571Y-68423571D02*
X202080952Y-68471190D01*
X202080952Y-68471190D02*
X201985714Y-68518809D01*
X201985714Y-68518809D02*
X201652381Y-68518809D01*
X202414286Y-69137857D02*
X203176190Y-69137857D01*
X203604762Y-68042619D02*
X203795238Y-68042619D01*
X203795238Y-68042619D02*
X203890476Y-68090238D01*
X203890476Y-68090238D02*
X203985714Y-68185476D01*
X203985714Y-68185476D02*
X204033333Y-68375952D01*
X204033333Y-68375952D02*
X204033333Y-68709285D01*
X204033333Y-68709285D02*
X203985714Y-68899761D01*
X203985714Y-68899761D02*
X203890476Y-68995000D01*
X203890476Y-68995000D02*
X203795238Y-69042619D01*
X203795238Y-69042619D02*
X203604762Y-69042619D01*
X203604762Y-69042619D02*
X203509524Y-68995000D01*
X203509524Y-68995000D02*
X203414286Y-68899761D01*
X203414286Y-68899761D02*
X203366667Y-68709285D01*
X203366667Y-68709285D02*
X203366667Y-68375952D01*
X203366667Y-68375952D02*
X203414286Y-68185476D01*
X203414286Y-68185476D02*
X203509524Y-68090238D01*
X203509524Y-68090238D02*
X203604762Y-68042619D01*
X204461905Y-68042619D02*
X204461905Y-68852142D01*
X204461905Y-68852142D02*
X204509524Y-68947380D01*
X204509524Y-68947380D02*
X204557143Y-68995000D01*
X204557143Y-68995000D02*
X204652381Y-69042619D01*
X204652381Y-69042619D02*
X204842857Y-69042619D01*
X204842857Y-69042619D02*
X204938095Y-68995000D01*
X204938095Y-68995000D02*
X204985714Y-68947380D01*
X204985714Y-68947380D02*
X205033333Y-68852142D01*
X205033333Y-68852142D02*
X205033333Y-68042619D01*
X205366667Y-68042619D02*
X205938095Y-68042619D01*
X205652381Y-69042619D02*
X205652381Y-68042619D01*
X206795238Y-69042619D02*
X206223810Y-69042619D01*
X206509524Y-69042619D02*
X206509524Y-68042619D01*
X206509524Y-68042619D02*
X206414286Y-68185476D01*
X206414286Y-68185476D02*
X206319048Y-68280714D01*
X206319048Y-68280714D02*
X206223810Y-68328333D01*
%TO.C,USB_IN1*%
X225719048Y-68042619D02*
X225719048Y-68852142D01*
X225719048Y-68852142D02*
X225766667Y-68947380D01*
X225766667Y-68947380D02*
X225814286Y-68995000D01*
X225814286Y-68995000D02*
X225909524Y-69042619D01*
X225909524Y-69042619D02*
X226100000Y-69042619D01*
X226100000Y-69042619D02*
X226195238Y-68995000D01*
X226195238Y-68995000D02*
X226242857Y-68947380D01*
X226242857Y-68947380D02*
X226290476Y-68852142D01*
X226290476Y-68852142D02*
X226290476Y-68042619D01*
X226719048Y-68995000D02*
X226861905Y-69042619D01*
X226861905Y-69042619D02*
X227100000Y-69042619D01*
X227100000Y-69042619D02*
X227195238Y-68995000D01*
X227195238Y-68995000D02*
X227242857Y-68947380D01*
X227242857Y-68947380D02*
X227290476Y-68852142D01*
X227290476Y-68852142D02*
X227290476Y-68756904D01*
X227290476Y-68756904D02*
X227242857Y-68661666D01*
X227242857Y-68661666D02*
X227195238Y-68614047D01*
X227195238Y-68614047D02*
X227100000Y-68566428D01*
X227100000Y-68566428D02*
X226909524Y-68518809D01*
X226909524Y-68518809D02*
X226814286Y-68471190D01*
X226814286Y-68471190D02*
X226766667Y-68423571D01*
X226766667Y-68423571D02*
X226719048Y-68328333D01*
X226719048Y-68328333D02*
X226719048Y-68233095D01*
X226719048Y-68233095D02*
X226766667Y-68137857D01*
X226766667Y-68137857D02*
X226814286Y-68090238D01*
X226814286Y-68090238D02*
X226909524Y-68042619D01*
X226909524Y-68042619D02*
X227147619Y-68042619D01*
X227147619Y-68042619D02*
X227290476Y-68090238D01*
X228052381Y-68518809D02*
X228195238Y-68566428D01*
X228195238Y-68566428D02*
X228242857Y-68614047D01*
X228242857Y-68614047D02*
X228290476Y-68709285D01*
X228290476Y-68709285D02*
X228290476Y-68852142D01*
X228290476Y-68852142D02*
X228242857Y-68947380D01*
X228242857Y-68947380D02*
X228195238Y-68995000D01*
X228195238Y-68995000D02*
X228100000Y-69042619D01*
X228100000Y-69042619D02*
X227719048Y-69042619D01*
X227719048Y-69042619D02*
X227719048Y-68042619D01*
X227719048Y-68042619D02*
X228052381Y-68042619D01*
X228052381Y-68042619D02*
X228147619Y-68090238D01*
X228147619Y-68090238D02*
X228195238Y-68137857D01*
X228195238Y-68137857D02*
X228242857Y-68233095D01*
X228242857Y-68233095D02*
X228242857Y-68328333D01*
X228242857Y-68328333D02*
X228195238Y-68423571D01*
X228195238Y-68423571D02*
X228147619Y-68471190D01*
X228147619Y-68471190D02*
X228052381Y-68518809D01*
X228052381Y-68518809D02*
X227719048Y-68518809D01*
X228480953Y-69137857D02*
X229242857Y-69137857D01*
X229480953Y-69042619D02*
X229480953Y-68042619D01*
X229957143Y-69042619D02*
X229957143Y-68042619D01*
X229957143Y-68042619D02*
X230528571Y-69042619D01*
X230528571Y-69042619D02*
X230528571Y-68042619D01*
X231528571Y-69042619D02*
X230957143Y-69042619D01*
X231242857Y-69042619D02*
X231242857Y-68042619D01*
X231242857Y-68042619D02*
X231147619Y-68185476D01*
X231147619Y-68185476D02*
X231052381Y-68280714D01*
X231052381Y-68280714D02*
X230957143Y-68328333D01*
%TO.C,S2*%
X96563095Y-94620000D02*
X96705952Y-94667619D01*
X96705952Y-94667619D02*
X96944047Y-94667619D01*
X96944047Y-94667619D02*
X97039285Y-94620000D01*
X97039285Y-94620000D02*
X97086904Y-94572380D01*
X97086904Y-94572380D02*
X97134523Y-94477142D01*
X97134523Y-94477142D02*
X97134523Y-94381904D01*
X97134523Y-94381904D02*
X97086904Y-94286666D01*
X97086904Y-94286666D02*
X97039285Y-94239047D01*
X97039285Y-94239047D02*
X96944047Y-94191428D01*
X96944047Y-94191428D02*
X96753571Y-94143809D01*
X96753571Y-94143809D02*
X96658333Y-94096190D01*
X96658333Y-94096190D02*
X96610714Y-94048571D01*
X96610714Y-94048571D02*
X96563095Y-93953333D01*
X96563095Y-93953333D02*
X96563095Y-93858095D01*
X96563095Y-93858095D02*
X96610714Y-93762857D01*
X96610714Y-93762857D02*
X96658333Y-93715238D01*
X96658333Y-93715238D02*
X96753571Y-93667619D01*
X96753571Y-93667619D02*
X96991666Y-93667619D01*
X96991666Y-93667619D02*
X97134523Y-93715238D01*
X97515476Y-93762857D02*
X97563095Y-93715238D01*
X97563095Y-93715238D02*
X97658333Y-93667619D01*
X97658333Y-93667619D02*
X97896428Y-93667619D01*
X97896428Y-93667619D02*
X97991666Y-93715238D01*
X97991666Y-93715238D02*
X98039285Y-93762857D01*
X98039285Y-93762857D02*
X98086904Y-93858095D01*
X98086904Y-93858095D02*
X98086904Y-93953333D01*
X98086904Y-93953333D02*
X98039285Y-94096190D01*
X98039285Y-94096190D02*
X97467857Y-94667619D01*
X97467857Y-94667619D02*
X98086904Y-94667619D01*
%TO.C,D11*%
X166862619Y-76124285D02*
X165862619Y-76124285D01*
X165862619Y-76124285D02*
X165862619Y-75886190D01*
X165862619Y-75886190D02*
X165910238Y-75743333D01*
X165910238Y-75743333D02*
X166005476Y-75648095D01*
X166005476Y-75648095D02*
X166100714Y-75600476D01*
X166100714Y-75600476D02*
X166291190Y-75552857D01*
X166291190Y-75552857D02*
X166434047Y-75552857D01*
X166434047Y-75552857D02*
X166624523Y-75600476D01*
X166624523Y-75600476D02*
X166719761Y-75648095D01*
X166719761Y-75648095D02*
X166815000Y-75743333D01*
X166815000Y-75743333D02*
X166862619Y-75886190D01*
X166862619Y-75886190D02*
X166862619Y-76124285D01*
X166862619Y-74600476D02*
X166862619Y-75171904D01*
X166862619Y-74886190D02*
X165862619Y-74886190D01*
X165862619Y-74886190D02*
X166005476Y-74981428D01*
X166005476Y-74981428D02*
X166100714Y-75076666D01*
X166100714Y-75076666D02*
X166148333Y-75171904D01*
X166862619Y-73648095D02*
X166862619Y-74219523D01*
X166862619Y-73933809D02*
X165862619Y-73933809D01*
X165862619Y-73933809D02*
X166005476Y-74029047D01*
X166005476Y-74029047D02*
X166100714Y-74124285D01*
X166100714Y-74124285D02*
X166148333Y-74219523D01*
%TO.C,R1*%
X155685833Y-67392619D02*
X155352500Y-66916428D01*
X155114405Y-67392619D02*
X155114405Y-66392619D01*
X155114405Y-66392619D02*
X155495357Y-66392619D01*
X155495357Y-66392619D02*
X155590595Y-66440238D01*
X155590595Y-66440238D02*
X155638214Y-66487857D01*
X155638214Y-66487857D02*
X155685833Y-66583095D01*
X155685833Y-66583095D02*
X155685833Y-66725952D01*
X155685833Y-66725952D02*
X155638214Y-66821190D01*
X155638214Y-66821190D02*
X155590595Y-66868809D01*
X155590595Y-66868809D02*
X155495357Y-66916428D01*
X155495357Y-66916428D02*
X155114405Y-66916428D01*
X156638214Y-67392619D02*
X156066786Y-67392619D01*
X156352500Y-67392619D02*
X156352500Y-66392619D01*
X156352500Y-66392619D02*
X156257262Y-66535476D01*
X156257262Y-66535476D02*
X156162024Y-66630714D01*
X156162024Y-66630714D02*
X156066786Y-66678333D01*
D12*
%TO.C,PWR1*%
X171390000Y-85030000D02*
X172720000Y-85030000D01*
X171390000Y-86360000D02*
X171390000Y-85030000D01*
X171390000Y-87630000D02*
X171390000Y-90230000D01*
X171390000Y-87630000D02*
X174050000Y-87630000D01*
X171390000Y-90230000D02*
X174050000Y-90230000D01*
X174050000Y-87630000D02*
X174050000Y-90230000D01*
%TO.C,PWR2*%
X178220000Y-63530000D02*
X178220000Y-61930000D01*
X177920000Y-63230000D02*
X175820000Y-63230000D01*
X177920000Y-48530000D02*
X177920000Y-63230000D01*
X176520000Y-63530000D02*
X178220000Y-63530000D01*
X170820000Y-63230000D02*
X168720000Y-63230000D01*
X168720000Y-63230000D02*
X168720000Y-61430000D01*
X168720000Y-57030000D02*
X168720000Y-48530000D01*
X168720000Y-48530000D02*
X177920000Y-48530000D01*
%TO.C,D1*%
X162905000Y-69540000D02*
X162905000Y-67620000D01*
X162905000Y-67620000D02*
X160045000Y-67620000D01*
X160045000Y-69540000D02*
X162905000Y-69540000D01*
D13*
%TO.C,DP_IN1*%
X99890000Y-63040000D02*
X96440000Y-63040000D01*
X99890000Y-52040000D02*
X99890000Y-49040000D01*
X99890000Y-49040000D02*
X82990000Y-49040000D01*
D14*
X86040000Y-65140000D02*
X86040000Y-65140000D01*
X85840000Y-65140000D02*
X85840000Y-65140000D01*
D13*
X82990000Y-63040000D02*
X85840000Y-63040000D01*
X82990000Y-49040000D02*
X82990000Y-52040000D01*
D14*
X85840000Y-65140000D02*
G75*
G03*
X86040000Y-65140000I100000J0D01*
G01*
X86040000Y-65140000D02*
G75*
G03*
X85840000Y-65140000I-100000J0D01*
G01*
D13*
%TO.C,DP_IN3*%
X155770000Y-63040000D02*
X152320000Y-63040000D01*
X155770000Y-52040000D02*
X155770000Y-49040000D01*
X155770000Y-49040000D02*
X138870000Y-49040000D01*
D14*
X141920000Y-65140000D02*
X141920000Y-65140000D01*
X141720000Y-65140000D02*
X141720000Y-65140000D01*
D13*
X138870000Y-63040000D02*
X141720000Y-63040000D01*
X138870000Y-49040000D02*
X138870000Y-52040000D01*
D14*
X141720000Y-65140000D02*
G75*
G03*
X141920000Y-65140000I100000J0D01*
G01*
X141920000Y-65140000D02*
G75*
G03*
X141720000Y-65140000I-100000J0D01*
G01*
D12*
%TO.C,U6*%
X171770000Y-70250000D02*
X177780000Y-70250000D01*
X174020000Y-77070000D02*
X177780000Y-77070000D01*
X177780000Y-70250000D02*
X177780000Y-71510000D01*
X177780000Y-77070000D02*
X177780000Y-75810000D01*
D13*
%TO.C,DP_IN2*%
X127830000Y-63040000D02*
X124380000Y-63040000D01*
X127830000Y-52040000D02*
X127830000Y-49040000D01*
X127830000Y-49040000D02*
X110930000Y-49040000D01*
D14*
X113980000Y-65140000D02*
X113980000Y-65140000D01*
X113780000Y-65140000D02*
X113780000Y-65140000D01*
D13*
X110930000Y-63040000D02*
X113780000Y-63040000D01*
X110930000Y-49040000D02*
X110930000Y-52040000D01*
D14*
X113780000Y-65140000D02*
G75*
G03*
X113980000Y-65140000I100000J0D01*
G01*
X113980000Y-65140000D02*
G75*
G03*
X113780000Y-65140000I-100000J0D01*
G01*
D13*
%TO.C,DP_OUT1*%
X66870000Y-63040000D02*
X63420000Y-63040000D01*
X66870000Y-52040000D02*
X66870000Y-49040000D01*
X66870000Y-49040000D02*
X49970000Y-49040000D01*
D14*
X53020000Y-65140000D02*
X53020000Y-65140000D01*
X52820000Y-65140000D02*
X52820000Y-65140000D01*
D13*
X49970000Y-63040000D02*
X52820000Y-63040000D01*
X49970000Y-49040000D02*
X49970000Y-52040000D01*
D14*
X52820000Y-65140000D02*
G75*
G03*
X53020000Y-65140000I100000J0D01*
G01*
X53020000Y-65140000D02*
G75*
G03*
X52820000Y-65140000I-100000J0D01*
G01*
D12*
%TO.C,USB_OUT1*%
X195840000Y-51572500D02*
X195840000Y-53552500D01*
X195840000Y-51572500D02*
X210560000Y-51572500D01*
X195840000Y-57252500D02*
X195840000Y-65792500D01*
X195840000Y-65792500D02*
X210560000Y-65792500D01*
X199200000Y-50692500D02*
X199700000Y-51192500D01*
X199700000Y-51192500D02*
X200200000Y-50692500D01*
X200200000Y-50692500D02*
X199200000Y-50692500D01*
X210560000Y-53552500D02*
X210560000Y-51572500D01*
X210560000Y-57252500D02*
X210560000Y-65792500D01*
%TO.C,USB_IN1*%
X221860000Y-51572500D02*
X221860000Y-53552500D01*
X221860000Y-51572500D02*
X236580000Y-51572500D01*
X221860000Y-57252500D02*
X221860000Y-65792500D01*
X221860000Y-65792500D02*
X236580000Y-65792500D01*
X225220000Y-50692500D02*
X225720000Y-51192500D01*
X225720000Y-51192500D02*
X226220000Y-50692500D01*
X226220000Y-50692500D02*
X225220000Y-50692500D01*
X236580000Y-53552500D02*
X236580000Y-51572500D01*
X236580000Y-57252500D02*
X236580000Y-65792500D01*
D15*
%TO.C,S2*%
X95010000Y-96405000D02*
X95010000Y-96750000D01*
X95010000Y-96405000D02*
X95355000Y-96405000D01*
X95010000Y-104505000D02*
X95010000Y-104160000D01*
X95010000Y-104505000D02*
X95355000Y-104505000D01*
X103110000Y-96405000D02*
X102765000Y-96405000D01*
X103110000Y-96405000D02*
X103110000Y-96750000D01*
X103110000Y-104505000D02*
X102765000Y-104505000D01*
X103110000Y-104505000D02*
X103110000Y-104160000D01*
D14*
X94165000Y-97205000D02*
G75*
G03*
X94165000Y-97205000I-100000J0D01*
G01*
D15*
%TO.C,S1*%
X95010000Y-91805000D02*
X95355000Y-91805000D01*
X95010000Y-91805000D02*
X95010000Y-91460000D01*
X103110000Y-91805000D02*
X102765000Y-91805000D01*
X103110000Y-91805000D02*
X103110000Y-91460000D01*
X95010000Y-83705000D02*
X95010000Y-84050000D01*
X95010000Y-83705000D02*
X95355000Y-83705000D01*
X103110000Y-83705000D02*
X103110000Y-84050000D01*
X103110000Y-83705000D02*
X102765000Y-83705000D01*
D14*
X95910000Y-92750000D02*
G75*
G03*
X95910000Y-92750000I-100000J0D01*
G01*
D12*
%TO.C,D11*%
X167400000Y-76920000D02*
X169100000Y-76920000D01*
X167400000Y-76920000D02*
X167400000Y-73660000D01*
X169100000Y-76920000D02*
X169100000Y-73660000D01*
%TO.C,R1*%
X155625436Y-67845000D02*
X156079564Y-67845000D01*
X155625436Y-69315000D02*
X156079564Y-69315000D01*
%TD*%
M02*
